<svg xmlns="http://www.w3.org/2000/svg" viewBox="0 0 2000 694" preserveAspectRatio="xMidYMid meet" id="generated_svg"><path d="M399.999,462.47L282.842,394.829L200,347L117.157,299.171L0,231.53L117.157,163.889L200,116.06L282.842,68.231L399.999,0.59L400,0.59L517.157,68.231L600,116.06L682.842,163.889L799.999,231.53L800,231.53L917.158,163.889L1000,116.06L1082.843,68.231L1200,0.59L1200,0.59L1317.157,68.231L1400,116.06L1482.843,163.889L1600,231.53L1600.001,231.53L1717.158,299.171L1800,347L1882.843,394.829L2000,462.47L1882.843,530.111L1800,577.94L1717.158,625.769L1600.001,693.41L1600,693.41L1482.843,625.769L1400,577.94L1317.158,530.111L1200.001,462.47L1200,462.47L1082.842,530.111L1000,577.94L917.157,625.769L800,693.41L800,693.41L682.843,625.769L600,577.94L517.157,530.111L400,462.47L399.999,462.47Z" style="fill: rgb(200, 235, 255); stroke: rgb(128, 128, 128); stroke-width: 0px;"/><path d="M1696.506,376.743L1697.54,376.487L1698.375,378.067L1697.219,379.755L1694.977,379.376L1693.244,378.13L1693.398,376.343L1695.101,375.612ZM1704.548,374.161L1705.295,374.302L1704.296,375.904L1703.952,375.981L1701.516,375.942L1699.116,375.78L1699.11,374.193L1701.052,374.173L1702.192,374.439L1704.548,374.161ZM1145.264,250.926L1145.655,253.725L1148.39,255.097L1150.19,257.341L1154.572,258.893L1159.782,258.904L1160.233,258.1L1160.029,255.408L1161.086,251.665L1158.826,250.015L1160.032,247.66L1158.013,247.108L1159.203,244.17L1161.969,245.521L1164.891,244.753L1162.957,242.225L1162.399,240.008L1159.805,240.576L1159.053,243.183L1158.506,240.687L1158.497,239.781L1159.487,238.389L1159.136,237.041L1155.962,235.281L1155.281,231.859L1153.891,230.699L1154.033,229.524L1156.708,230.292L1157.316,227.675L1159.824,227.421L1162.233,228.288L1163.337,224.779L1163.201,222.451L1160.375,222.293L1158.197,221.105L1154.739,222.25L1152.065,222.608L1150.375,224.508L1147.649,224.625L1144.132,227.719L1145.79,231.52L1144.971,233.812L1147.083,238.543L1148.183,240.689L1149.128,243.476L1150.47,243.914L1151.184,245.042L1148.698,244.843L1147.6,247.468L1146.825,248.59L1145.568,249.174ZM297.328,59.868L298.64,63.21L298.971,67.071L297.728,69.613L294.685,71.413L294.299,74.318L295.961,76.005L297.226,78.832L297.786,82.421L299.579,84.988L297.68,90.391L299.817,91.2L301.475,87.978L303.426,87.173L304.952,92.492L306.9,95.012L307.839,100.291L307.734,103.54L307.77,109.164L307.593,115.725L305.726,117.832L305.782,119.478L307.572,116.641L310.206,120.135L310.014,125.574L307.675,126.094L305.433,124.673L302.808,128.048L301.774,128.299L300.705,127.108L300.724,125.017L299.959,122.427L300.918,120.678L300.224,118.877L298.587,117.887L299.01,116.019L300.335,115.044L298.343,114.305L297.442,116.461L295.569,117.112L295.547,117.12L292.832,116.804L291.639,114.754L291.037,117.716L289.309,121.162L289.071,122.657L288.033,124.114L286.976,124.578L285.407,121.193L279.957,119.165L278.588,118.08L274.711,117.565L271.17,116.777L269.347,117.38L269.868,112.911L264.453,110.107L265.156,108.26L262.698,107.463L261.705,104.416L259.158,105.388L254.59,105.211L253.276,106.264L253.848,109.264L248.94,112.499L247.682,110.529L244.41,111.528L243.529,113.492L239.615,110.593L235.385,112.338L232.584,109.17L228.754,110.62L223.574,108.818L225.433,106.372L229.948,102.167L237.144,96.037L242.67,94.328L245.736,95.121L247.462,94.219L249.924,97.421L256.224,98.559L261.57,99.781L266.132,101.45L271.738,99.354L270.276,97.23L266.837,98.148L260.497,95.566L264.106,90.856L260.51,85.967L254.736,84.458ZM1345.264,84.458L1346.568,87.525L1349.47,86.886L1349.613,86.969L1348.361,92.79L1347.124,96.623L1344.642,94.792L1342.517,97.892L1342.913,101.766L1338.998,107.737L1336.207,114.973L1338.159,126.223L1339.62,139.478L1342.198,136.983L1344.629,137.736L1346.642,136.492L1346.139,133.973L1347.857,132.013L1353.081,131.91L1355.604,133.966L1357.312,138.061L1360.563,141.188L1364.309,146.073L1365.753,152.776L1367.026,155.185L1367.704,160.854L1368.224,166.446L1368.518,169.208L1367.464,173.298L1366.304,174.55L1363.945,174.518L1363.131,178.896L1363.614,180.037L1362.737,180.584L1362.684,182.245L1362.887,183.669L1364.601,185.449L1364.079,186.955L1364.122,187.74L1364.035,189.177L1363.059,190.798L1362.772,192.271L1363.661,193.453L1363.667,193.943L1364.846,193.651L1366.984,193.763L1371.436,195.203L1373.422,196.405L1376.059,199.336L1376.478,201.465L1374.911,203.665L1374.06,206.222L1372.248,208.094L1370.823,206.875L1369.606,204.592L1366.412,202.664L1367.637,200.906L1364.334,199.891L1362.904,200.246L1363.047,200.95L1362.607,201.673L1362.129,201.238L1361.389,201.444L1360.485,201.487L1360.131,199.863L1360.379,199.15L1359.805,198.824L1359.186,196.969L1358.707,196.653L1357.271,197.356L1355.743,197.438L1353.472,200.503L1352.901,202.941L1351.186,205.393L1351.376,203.304L1350.163,202.589L1350.44,199.53L1348.301,198.955L1347.23,201.266L1346.26,204.885L1346.217,207.574L1344.241,209.178L1344.03,211.212L1346.439,212.273L1348.51,211.479L1349.438,212.648L1351.718,212.211L1352.731,208.52L1355.408,208.137L1356.838,207.154L1358.249,208.284L1355.746,211.341L1355.789,213.545L1354.623,216.448L1354.833,219.153L1358.317,218.914L1361.135,220.921L1364.345,222.372L1367.463,223.283L1368.921,225.309L1367.99,227.115L1369.624,228.148L1371.665,227.968L1372.95,230.436L1373.94,233.032L1372.755,234.248L1373.126,238.481L1373.71,243.511L1373.701,248.451L1371.938,253.414L1369.907,258.18L1367.138,260.389L1366.336,262.695L1364.81,262.308L1364.215,264.694L1361.357,268.444L1358.752,270.596L1359.686,274.339L1358.258,275.407L1356.262,273.611L1356.242,272.066L1352.016,273.191L1350.996,274.415L1348.721,279.102L1347.941,283.334L1348.46,285.867L1352.414,288.027L1357.37,290.716L1361.105,291.223L1364.338,292.816L1369.128,298.116L1372.084,304.264L1370.792,307.989L1368.481,312.252L1367.506,316.656L1365.318,322.256L1362.958,320.558L1362.591,317.604L1359.219,316.86L1356.312,317.783L1354.127,316.611L1350.754,313.794L1347.184,313.672L1344.53,315.161L1343.713,312.141L1340.965,313.602L1342.482,317.658L1343.13,323.896L1343.53,327.748L1344.958,330.37L1347.147,329.342L1350.049,332.1L1352.164,335.126L1355.043,336.345L1357.266,335.695L1359.949,336.772L1360.894,336.719L1364.008,338L1366.711,339.886L1368.24,342.492L1368.799,344.55L1369.824,345.776L1371.279,348.091L1373.062,348.558L1376.288,351.532L1376.951,353.012L1374.627,354.72L1369.774,353.408L1364.057,352.352L1362.655,350.421L1359.367,348.742L1357.335,345.581L1355.099,344.035L1354.133,340.89L1352.631,339.607L1350.618,338.809L1349.185,337.168L1346.43,335.915L1344.007,334.938L1344.452,337.526L1342.882,335.693L1342.208,333.078L1341.611,328.904L1340.089,326.277L1339.867,322.912L1337.837,321.303L1336.4,317.211L1334.31,316.012L1331.481,312.272L1329.054,308.124L1326.501,305.912L1325.166,308.664L1322.588,312.921L1320.669,313.466L1318.362,313.578L1317.79,308.652L1315.878,305.672L1311.911,302.791L1311.831,301.37L1309.833,301.749L1306.595,299.913L1305.067,298.499L1304.269,296.822L1303.095,295.421L1301.108,293.974L1298.191,295.032L1298.948,296.335L1298.602,298.679L1297.021,298.527L1296.758,299.36L1295.736,299.342L1294.39,299.533L1294.344,301.006L1292.124,301.853L1288.288,304.204L1289.274,306.857L1288.106,309.732L1283.862,314.198L1281.085,320.245L1278.984,323.783L1275.946,327.836L1276.361,329.687L1274.723,331.438L1271.6,334.29L1269.85,335.223L1269.329,338.898L1271.303,344.124L1272.268,347.636L1271.413,352.57L1272.964,360.295L1270.843,361.495L1269.615,365.946L1271.208,366.927L1267.544,370.1L1266.678,374.11L1265.14,376.382L1260.113,373.672L1256.953,367.688L1254.486,363.539L1252.593,361.926L1249.562,358.316L1247.653,352.872L1246.502,350.269L1241.681,345.45L1238.831,337.328L1236.893,332.087L1236.32,326.797L1235.054,323.019L1229.054,327.471L1225.896,327.858L1219.688,324.095L1221.725,321.916L1220.302,320.534L1214.846,318.122L1211.484,317.794L1210.013,314.917L1206.39,312.312L1197.777,314.042L1190.297,312.511L1183.999,311.703L1175.995,308.493L1171.55,306.425L1167.04,304.754L1165.911,299.377L1164.132,298.21L1161.082,298.179L1156.994,299.085L1152.645,296.572L1149.461,292.636L1146.242,290.624L1144.581,286.455L1143.044,280.893L1141.132,280.987L1139.281,279.205L1137.744,280.254L1135.856,279.52L1136.178,281.293L1135.697,282.022L1136.143,285.037L1136.764,288.554L1138.256,289.892L1138.562,291.35L1140.605,293.618L1140.496,295.209L1139.903,296.349L1140.092,297.745L1140.903,299.11L1141.134,300.498L1141.482,301.593L1141.787,298.765L1143.131,297.076L1144.185,296.958L1145.048,298.465L1144.702,300.715L1143.486,302.726L1143.909,304.411L1144.591,304.421L1144.544,305.526L1147.55,305.802L1150.645,306.836L1152.929,307.636L1155.955,305.701L1159.186,303.941L1161.964,302.134L1163.253,301.063L1163.703,301.534L1163.136,303.096L1162.524,303.695L1162.672,307.022L1164.14,310.301L1166.24,312.415L1169.2,313.783L1171.619,315.214L1173.321,318.18L1174.369,319.928L1175.894,320.905L1175.805,321.877L1174.006,324.046L1173.21,325.083L1171.246,325.955L1169.337,328.477L1167.387,327.651L1166.379,328.419L1165.463,330.433L1165.689,333.557L1165.223,333.968L1163.218,333.305L1160.325,334.068L1159.649,336.08L1158.558,336.686L1155.899,335.736L1154.087,336.265L1153.86,338.04L1151.645,338.542L1149.394,337.295L1146.388,337.746L1144.45,337.295L1141.304,337.341L1140.179,338.955L1139.831,340.39L1135.462,340.63L1128.712,340.072L1124.56,341.615L1122.801,341.133L1121.705,340.396L1119.045,341.177L1116.42,340.936L1113.202,339.764L1112.197,339.587L1111.092,340.316L1110.033,340.181L1109.177,340.973L1107.372,340.058L1106.037,340.08L1103.562,338.72L1103.3,335.927L1104.035,333.783L1103.78,332.345L1103.937,329.123L1103.394,327.072L1104.158,327.193L1104.312,325.264L1104.959,324.707L1105.298,322.973L1105.315,321.148L1104.624,319.566L1104.803,317.947L1103.458,315.861L1102.624,312.013L1102.614,308.649L1101.145,305.232L1099.893,304.039L1098.895,299.796L1099.35,297.228L1100.178,295.24L1099.702,290.717L1098.733,288.802L1097.343,287.426L1097.038,285.095L1097.469,284.415L1097.268,282.356L1096.677,281.261L1096.443,278.346L1095.66,274.989L1095.061,272.168L1093.64,271.584L1094.773,270.017L1095.328,268.957L1096.165,267.829L1096.255,267.328L1094.972,268.28L1093.422,270.425L1092.005,271.76L1091.125,272.03L1090.601,270.593L1089.923,268.637L1089.836,263.283L1089.435,263.437L1089.184,267.241L1089.586,271.166L1089.718,277.076L1090.078,279.292L1090.298,281.539L1091.536,286.324L1090.729,286.643L1090.003,288.84L1092.39,293.389L1092.676,294.319L1092.458,298.107L1091.55,298.429L1090.709,302.182L1090.365,306.888L1091.277,308.307L1092.58,310.422L1093.038,315.467L1092.816,319.264L1094.049,321.922L1097.566,327.642L1098.817,330.734L1100.05,333.888L1100.761,335.772L1102.17,337.795L1102.67,339.451L1102.063,341.095L1099.7,341.116L1100.938,342.97L1101.925,344.301L1102.152,346.376L1103.339,348.94L1105.211,349.839L1109.097,350.419L1113.429,351.844L1117.212,352.055L1119.244,352.65L1120.845,352.477L1123.156,353.341L1124.468,353.823L1126.479,353.98L1128.735,354.477L1130.997,353.782L1132.566,354.439L1132.417,355.731L1131.531,358.235L1131.082,360.669L1129.862,361.957L1127.677,366.509L1124.555,370.89L1120.624,375.841L1115.389,381.292L1110.467,385.065L1103.793,389.4L1098.51,391.298L1090.892,392.992L1085.908,394.798L1077.585,397.374L1074.761,398.879L1073.026,399.259L1068.906,399.156L1066.54,400.164L1064.867,399.588L1061.972,401.877L1059.461,402.63L1056.602,404.605L1054.096,404.887L1054.096,404.887L1048.646,408.216L1047.132,410.308L1048.257,412.981L1047.575,413.927L1044.831,415.363L1044.129,416.51L1042.511,417.954L1041.864,420.784L1040.393,424.893L1040.966,426.398L1040.211,428.185L1037.253,431.221L1035.185,434.207L1031.01,439.031L1030.223,440.884L1027.388,442.343L1024.379,443.534L1020.875,443.971L1017.22,443.142L1012.743,442.212L1006.939,443.018L1005.422,442.773L1001.815,443.428L1000.139,443.277L998.291,445.143L997.867,448.204L997.065,450.222L996.426,451.085L997.009,451.291L994.723,453.951L993.256,454.922L993.486,455.842L992.177,456.696L990.304,456.878L987.445,456.248L983.211,455.513L981.315,455.733L980.655,457.039L981.156,457.686L979.837,458.967L977.696,460.495L975.695,462.545L974.135,463.311L971.453,463.484L970.69,463.543L968.653,464.192L966.972,465.112L964.211,466.104L959.563,467.051L956.779,467.558L954.174,467.611L951.048,467.062L949.782,466.434L948.979,467.005L947.845,465.68L946.355,465.473L944.185,463.347L942.565,462.814L941.69,462.074L938.612,461.732L936.341,460.996L934.274,461.23L933.164,460.681L932.752,459.1L931.982,458.595L931.674,456.736L931.34,457.074L931.452,456.122L932.405,454.444L932.689,452.075L933.759,451.978L934.925,449.729L934.796,446.119L934.882,442.96L934.876,442.95L935.091,438.143L934.337,434.876L934.448,432.154L935.358,428.919L935.82,426.384L937.293,421.207L939.084,417.48L939.586,415.602L939.14,413.744L938.963,410.37L939.322,405.76L939.675,403.407L938.809,398.978L939.823,396.347L940.531,394.1L942.335,391.357L944.857,388.796L945.723,387.411L948.203,384.833L949.624,383.796L952.506,382.47L954.281,381.454L955.904,379.011L956.738,376.893L956.429,375.09L956.662,372.423L956.954,369.781L957.5,369.11L959.209,368.172L960,363.992L960.572,361.049L960.099,357.667L960.776,357.075L960.891,355.591L961.423,352.087L960.66,346.189L959.054,339.944L958.326,335.052L958.175,329.222L958.945,327.784L960.373,326.776L962.971,324.072L965.868,321.515L965.645,320.522L970.065,316.845L972.756,314.119L973.237,310.834L972.137,309.27L972.677,307.2L972.189,306.142L972.989,305.164L968.458,304.344L967.31,303.37L965.355,303.387L962.656,301.635L962.603,298.236L963.544,294.965L963.001,291.153L960.403,289.593L957.383,287.691L954.186,286.304L950.725,285.272L943.313,283.805L940.196,283.754L935.933,282.706L933.565,279.612L931.829,278.582L929.873,276.227L927.405,274.724L922.237,272.435L918.474,271.718L913.155,270.514L912.466,269.926L911.368,269.28L909.005,264.911L908.243,259.856L906.89,255.673L906.661,251.649L905.849,250.652L904.486,247.296L904.481,244.066L905.209,242.372L907.619,239.642L908.164,236.505L908.145,234.146L907.629,232.998L907.42,231.648L908.69,229.947L908.964,228.837L908.468,227.481L907.988,224.608L906.58,223.132L906.794,221.598L907.41,221.155L907.054,219.598L907.649,218.763L910.016,216.009L912.238,215.125L913.669,211.621L913.166,209.069L915.542,209.905L919.967,209.425L922.729,208.723L924.393,206.983L927.164,206.487L930.949,204.31L934.057,201.364L935.388,199.691L937.449,198.687L938.25,196.683L938.05,194.001L939.646,193.054L941.386,192.016L943.506,192.46L946.268,192.108L947.199,191.067L950.57,190.306L954.281,190.321L955.768,190.87L958.381,190.172L960.12,188.915L963.05,188.392L966.001,189.31L970.792,188.512L970.88,188.527L973.337,188.903L976.088,191.044L980.063,191.349L982.094,191.945L986.494,191.934L989.294,188.274L992.549,187.09L994.292,186.12L997.596,185.985L1001.089,187.166L1003.836,187.819L1007.976,186.747L1010.213,185.917L1011.808,187.507L1012.064,189.835L1014.312,191.646L1016.045,194.327L1016.975,195.233L1020.357,195.762L1023.097,197.423L1025.398,197.571L1028.153,198.598L1032.172,201.232L1035.884,203.938L1036.656,205.198L1039.498,205.771L1041.809,207.536L1042.216,208.825L1043.812,209.785L1046.959,210.445L1048.241,211.876L1047.189,213.191L1049.748,213.524L1049.539,214.154L1047.502,214.704L1046.595,215.943L1046.882,217.16L1044.934,219.298L1042.481,219.605L1041.857,221.385L1042.996,222.258L1042.66,223.952L1043.241,224.984L1045.304,227.779L1046.443,228.198L1048.083,229.943L1050.384,233.195L1049.908,236.382L1051.726,238.272L1054.404,241.534L1056.168,244.496L1057.806,244.46L1059.746,243.822L1060.442,241.302L1062.005,240.347L1064.51,239.996L1066.397,240.546L1069.354,242.942L1069.495,244.695L1070.413,245.199L1070.932,246.115L1073.223,247.758L1073.338,249.049L1076.714,250.702L1078.788,252.709L1080.912,254.836L1081.898,255.883L1084.348,255.861L1085.812,255.485L1088.233,256.284L1089.944,257.515L1090.008,259.366L1091.06,258.629L1092.892,260.296L1094.931,261.372L1096.587,261.142L1097.778,260.433L1097.664,260.176L1098.963,259.001L1100.433,256.845L1101.128,256.206L1101.218,256.204L1103.161,254.01L1105.33,252.3L1105.42,252.206L1106.083,249.692L1107.217,248.636L1106.794,246.838L1108.227,246.021L1106.541,245.698L1104.655,244.142L1102.179,245.245L1098.174,244.014L1096.835,241.504L1094.195,240.241L1093.065,241.252L1091.193,240.846L1089.564,238.162L1086.894,236.979L1086.904,233.33L1085.99,230.842L1088.264,229.083L1087.498,226.943L1091.45,225.314L1095.07,226.841L1097.113,224.968L1101.38,227.287L1105.078,226.439L1108.212,226.638L1112.209,228.045L1115.649,231.803L1118.816,234.251L1121.953,234.696L1124.076,235.669L1127.694,234.844L1128.524,233.54L1128.571,231.091L1127.481,229.451L1126.199,228.667L1125.605,227.387L1123.387,223.666L1121.057,221.57L1119.694,218.993L1121.606,219.022L1124.549,216.881L1123.689,215.171L1127.63,214.843L1127.808,214.094L1125.52,214.018L1123.563,213.724L1121.633,214.304L1119.411,213.773L1116.976,214.315L1116.419,216.089L1116.328,216.374L1117.163,217.541L1119.625,218.15L1118.732,219.151L1115.952,218.842L1112.065,219.561L1111.047,218.434L1112.158,217.132L1110.05,215.26L1110.71,214.81L1113.306,214.555L1113.12,214.044L1112.952,213.584L1109.813,211.456L1110.171,210.209L1107.972,209.792L1106.393,211.192L1103.653,212.791L1103.337,213.612L1101.957,213.821L1101.427,213.237L1099.077,216.677L1097.325,217.424L1095.478,219.224L1095.377,221.286L1095.094,222.579L1096.644,224.462L1095.875,225.018L1093.064,223.937L1091.645,224.407L1088.943,225.107L1088.92,223.366L1089.249,222.767L1087.918,222.005L1086.888,221.136L1083.785,220.519L1084.468,222.974L1083.074,222.861L1081.825,222.213L1081.455,220.075L1080.691,220.494L1080.247,222.504L1080.641,224.473L1079.444,224.654L1079.994,226.676L1080.68,228.115L1079.846,229.787L1078.121,227.885L1078.007,229.735L1076.378,229.257L1075.879,232.288L1074.311,231.494L1073.098,229.194L1073.525,226.412L1074.199,224.274L1074.074,222.458L1073.863,220.167L1074.189,219.269L1073.923,218.851L1074.249,218.197L1073.599,216.527L1074.21,215.056L1075.534,213.203L1076.35,212.479L1076.255,211.815L1075.943,211.329L1075.9,210.043L1075.334,208.925L1074.014,206.674L1073.451,204.899L1072.113,202.861L1071.753,199.671L1072.295,199.719L1072.154,197.924L1072.743,196.936L1071.768,195.637L1070.359,196.452L1070.41,195.106L1071.107,194.152L1071.206,194.157L1071.812,194.195L1070.546,192.715L1068.292,192.607L1067.442,194.075L1066.656,194.701L1066.325,196.583L1067.239,199.297L1066.718,202.305L1067.524,206.086L1069.154,207.124L1069.272,208.072L1068.329,208.26L1069.572,210.479L1070.605,212.302L1071.546,214.902L1071.451,215.573L1070.437,216.344L1070.039,214.29L1068.456,212.67L1066.427,213.928L1067.334,215.944L1066.167,217.256L1065.152,216.854L1062.482,218.515L1061.426,218.147L1061.978,217.298L1063.377,216.087L1064.223,215.79L1064.41,213.634L1064.656,211.801L1064.001,210.877L1064.158,209.263L1063.136,207.857L1062.979,206.129L1061.563,204.897L1060.811,202.525L1060.203,199.406L1059.962,196.826L1061.302,193.646L1060.562,192.598L1059.65,190.482L1058.487,190.159L1056.418,190.539L1055.466,190.096L1052.531,190.197L1049.293,186.281L1045.791,184.706L1044.244,186.089L1043.068,187.708L1039.733,187.794L1036.721,186.049L1035.778,186.754L1033.285,187.044L1030.637,188.408L1030.121,190.598L1027.909,190.647L1025.958,191.888L1023.905,190.933L1020.593,191.477L1017.855,188.962L1015.866,186.951L1013.651,186.517L1011.888,186.642L1011.037,185.389L1011.09,183.759L1011.945,181.73L1010.366,179.31L1008.837,179.046L1008.085,177.528L1006.698,176.628L1009.088,175.083L1010.517,173.389L1009.841,172.155L1010.357,170.696L1012.265,169.307L1014.039,169.33L1015.256,168.515L1017.26,167.527L1018.338,166.457L1018.899,165.147L1019.717,164.234L1021.705,162.626L1022.099,160.678L1026.63,161.968L1028.418,164.964L1030.916,167.684L1032.47,170.229L1034.144,171.712L1037.092,174.87L1039.486,174.299L1044.576,169.504L1045.288,164.911L1045.258,162.25L1043.623,158.418L1045.313,156.354L1048.019,158.188L1050.191,161.874L1052.449,158.328L1052.96,161.12L1058.7,162.94L1061.138,161.195L1063.044,162.036L1064.816,162.737L1066.293,162.763L1071.112,159.917L1074.258,160.687L1075.526,161.943L1076.313,161.595L1077.777,162.584L1077.592,163.486L1079.772,162.941L1080.237,161.522L1081.424,159.766L1082.035,157.561L1084.319,154.427L1085.187,153.819L1086.309,153.268L1087.779,154.184L1088.937,153.764L1090.787,153.857L1089.587,155.433L1088.41,156.084L1087.968,157.103L1088.48,158.237L1087.27,159.103L1087.04,158.399L1084.323,159.693L1083.686,161.52L1082.867,162.704L1084.001,164.697L1083.226,165.755L1085.299,166.464L1086.798,166.317L1087.855,168.88L1088.006,170.424L1089.749,170.317L1093.315,170.653L1096.119,170.96L1097.506,172.551L1097.177,173.403L1098.836,174.44L1100.048,173.262L1103.049,173.579L1104.223,170.63L1105.682,168.181L1107.68,166.542L1109.902,166.238L1109.896,169.466L1111.32,170.093L1113.011,167.645L1114.264,165.709L1113.414,165.843L1112.995,164.086L1113.913,162.021L1116.513,162.082L1118.875,162.549L1120.413,163.945L1122.225,164.589L1125.108,163.376L1124.136,160.94L1120.975,159.937L1117.418,159.904L1114.375,159.33L1114.489,156.924L1113.599,154.952L1115.899,151.639L1116.988,147.98L1118.895,146.233L1121.516,144.61L1127.052,142.138L1128.442,141.771L1129.138,140.045L1128.114,137.253L1125.114,137.146L1122.269,139.108L1121.192,141.542L1117.214,143.25L1112.581,144.69L1108.485,148.976L1108.061,152.09L1108.375,154.9L1104.646,157.847L1102.534,157.588L1098.494,162.698L1095.677,165.1L1093.897,163.45L1091.338,165.293L1089.359,164.083L1090.841,160.763L1091.993,156.207L1093.999,150.812L1094.42,148.044L1088.857,149.326L1086.359,148.346L1085.605,144.956L1087.762,141.148L1093.217,133.405L1096.073,132.45L1101.601,132.752L1106.727,131.344L1112.534,128.187L1120.343,123.111L1124.241,121.55L1130.62,118.505L1134.294,118.138L1136.155,119.396L1139.91,116.659L1142.026,117.825L1144.682,117.803L1147.192,122.488L1144.963,123.142L1145.197,126.411L1147.262,125.285L1148.417,128.62L1151.94,130.603L1155.924,136.655L1156.472,138.929L1155.663,141.855L1153.112,143.852L1150.053,144.509L1144.208,139.671L1142.874,139.891L1144.176,143.637L1143.53,145.583L1142.013,149.781L1143.682,151.554L1144.616,152.912L1145.548,150.997L1145.182,149.009L1146.805,147.685L1149.981,151.076L1151.755,150.312L1151.62,147.048L1156.843,143.441L1158.318,143.872L1159.483,145.55L1161.304,142.635L1160.64,139.88L1162.192,137.276L1161.798,134.368L1165.941,136.119L1166.262,138.7L1163.993,139.158L1163.355,141.638L1164.323,143.238L1167.248,142.378L1168.332,139.516L1172.409,137.325L1179.199,132.998L1180.482,133.109L1178.305,136.111L1180.452,136.404L1181.967,134.672L1185.387,134.126L1188.299,131.746L1190.19,134.254L1192.528,130.699L1190.783,128.275L1191.834,126.488L1197.181,126.764L1199.787,127.628L1206.907,134.589L1208.046,132.349L1206.003,129.423L1205.902,128.389L1203.64,127.409L1204.18,125.243L1203.098,121.163L1203.006,119.558L1205.986,115.788L1206.795,111.399L1207.897,110.659L1212.148,112.879L1212.78,115.773L1211.675,119.586L1212.871,121.361L1213.786,124.896L1214.113,131.458L1216.446,134.631L1216.026,137.668L1212.929,143.741L1215.267,144.701L1215.866,143.146L1217.851,142.207L1218.064,139.978L1219.367,137.934L1217.942,135.172L1218.351,132.144L1216.367,131.524L1215.614,128.808L1216.356,124.11L1213.713,119.753L1216.139,116.801L1215.286,113.119L1216.028,113.118L1217.237,116.059L1217.33,120.822L1219.183,121.928L1217.902,118.254L1220.155,116.552L1223.22,116.541L1226.571,119.514L1224.353,115.298L1223.054,109.83L1225.209,108.9L1228.498,109.166L1231.155,108.411L1229.34,105.738L1229.79,102.224L1231.14,102.002L1232.592,99.17L1235.344,98.073L1235.181,96.551L1237.825,95.521L1239.176,96.517L1240.323,93.099L1242.203,92.625L1241.422,90.248L1241.258,87.653L1242.324,84.622L1244.726,85.684L1244.18,87.534L1246.642,87.398L1248.261,89.826L1248.412,88.164L1251.013,86.772L1254.429,87.95L1256.265,89.285L1257.618,91.924L1257.488,94.013L1256.556,98.202L1256.613,100.031L1258.239,99.972L1260.402,100.235L1260.754,98.785L1263.068,101.366L1262.766,99.9L1263.847,98.081L1267.33,96.41L1268.981,98.246L1273.238,95.303L1270.807,92.053L1273.17,90.87L1274.448,89.329L1277.562,89.845L1280.128,91.874L1281.043,94.122L1284.749,95.747L1287.465,95.447L1284.668,90.464L1287.528,90.207L1287.893,87.152L1290.467,85.762L1289.968,83.834L1291.657,82.123L1287.636,79.923L1286.828,76.709L1294.667,65.77L1297.599,66.104L1302.15,63.752L1302.672,59.868ZM250.529,86.887L250.448,87.068L250.387,86.969ZM356.641,128.337L359.05,129.832L360.783,132.315L362.289,132.882L364.208,131.057L366.492,129.705L368.704,130.344L371.578,128.277L374.459,127.008L375.184,128.943L376.619,127.755L377.397,125.458L378.429,125.889L380.566,129.953L383.295,126.422L383.046,130.06L385.291,128.987L386.111,127.474L388.212,127.411L390.782,128.953L395.022,129.84L397.627,130.055L399.522,129.282L402.167,132.124L399.388,134.112L403.031,135.683L408.325,136.193L409.905,135.66L412.178,138.796L414.02,136.729L411.92,134.446L412.962,133.01L415.156,133.11L416.544,132.822L418.135,134.117L420.303,136.839L422.245,136.626L425.75,138.877L428.332,138.221L430.873,138.339L430.041,135.493L431.343,134.677L434.289,136.156L435.358,140.431L435.502,136.783L436.853,136.824L436.328,132.185L433.872,129.417L431.565,127.57L430.364,122.259L431.187,118.669L433.29,119.381L435.354,121.433L438.951,126.608L438.314,129.032L441.411,129.651L442.895,134.295L443.762,130.455L446.55,133.045L447.242,136.411L449.785,139.061L450.241,135.585L449.892,131.547L448.095,126.6L450.217,126.48L452.534,126.591L455.318,128.232L456.341,130.368L456.272,132.998L458.27,134.962L458.97,137.077L457.257,140.889L455.365,142.116L453.263,141.249L453.59,143.477L453.327,147.346L453.498,149.262L452.514,152.443L450.132,153.184L449.299,155.158L450.026,157.822L448.067,158.67L446.758,162.279L445.942,167.063L446.025,170.285L447.138,174.841L450.329,175.049L452.289,178.467L454.105,181.15L456.755,179.856L461.055,180.632L463.543,181.532L465.59,182.864L468.463,183.156L471.138,184.014L474.481,183.173L476.742,182.788L477.675,185.874L479.73,189.074L482.789,192.286L487.187,194.236L488.255,192.54L487.767,188.73L484.325,183.903L482.166,182.67L484.464,179.855L485.414,176.582L485.262,173.774L483.989,171.552L481.362,169.128L477.971,167.363L478.222,162.776L475.918,159.802L472.625,154.245L473.328,152.914L476.543,152.752L478.34,152.36L479.121,150.774L481.211,151.295L484.252,152.394L485.495,153.518L488.388,152.234L490.048,155.185L493.099,159.204L494.864,158.852L497.203,160.102L498.343,156.79L497.468,152.124L497.446,149.88L500.559,152.025L505.325,154.728L509.654,157.239L510.392,159.684L513.717,159.796L516.396,160.399L519.479,159.086L521.215,159.168L523.756,161.114L525.296,160.408L526.8,160.926L529.468,164.046L529.112,166.173L528.69,168.203L526.665,171.544L526.22,175.639L523.566,178.377L519.322,180.508L516.593,182.339L514.837,183.785L514.615,186.919L513.017,189.727L512.556,195.335L511.842,199.391L513.262,197.941L514.118,192.184L516.59,187.229L519.184,185.117L521.755,185.436L521.27,188.587L523.894,191.309L525.939,193.054L529.393,192.75L532.284,190.071L531.94,185.511L533.523,187.451L535.472,187.534L534.417,191.131L531.261,195.879L530.055,198.367L529.14,201.898L527.465,202.686L525.862,200.322L527.798,195.694L524.699,197.871L522.704,199.631L523.635,200.36L522.334,203.092L520.821,205.36L519.136,207.499L519.017,209.865L519.031,210.723L519.882,212.278L521.465,213.414L522.394,212.979L521.563,212.05L522.57,212.324L522.878,213.247L521.692,214.55L520.627,215.079L519.306,216.475L518.434,217.138L517.232,217.97L515.848,219.79L518.792,217.513L519.743,217.712L517.126,220.25L515.708,220.998L515.584,220.606L515.335,221.773L516.067,221.566L516.686,223.928L516.193,227.048L515.639,226.373L515.059,226.477L513.931,226.112L515.209,227.469L516.049,227.705L516.659,228.796L516.499,230.32L516.359,233.342L516.086,233.328L515.807,230.954L514.048,230.417L512.548,228.084L512.738,229.584L514.166,231.227L512.387,231.511L514.477,231.686L515.977,234.456L516.755,234.326L517.514,235.223L519.332,238.008L518.891,240.971L516.775,243.098L515.984,245.631L514.822,246.418L514.056,248.125L514.167,249.308L512.242,252.572L511.416,254.69L510.972,257.07L511.506,259.44L512.915,261.372L514.954,263.61L517.122,265.241L517.725,266.578L520.624,269.565L521.475,271.704L521.9,272.977L522.063,275.223L521.404,276.021L519.85,276.291L518.804,275.114L517.43,274.88L514.784,272.847L512.476,271.016L511.544,269.97L511.242,267.625L509.764,266.234L506.548,264.536L505.289,264.51L503.056,267.12L502.502,267.162L500.579,266.233L498.53,266.142L495.492,267.805L492.829,268.414L490.712,269.465L489.694,270.417L490.509,271.098L490.904,272.455L491.744,272.875L491.33,273.515L490.079,273.435L489.181,274.473L486.988,275.162L484.208,274.188L481.71,275.519L479.268,275.486L477.428,276.366L475.039,278.026L472.85,281.532L470.041,284.071L468.667,286.333L468.304,288.181L468.856,290.671L469.437,292.353L470.36,293.378L469.817,297.002L469.834,299.855L470.742,304.914L470.826,306.868L471.913,308.707L473.44,310.156L474.855,312.836L477.896,314.79L479.269,316.65L481.139,317.993L485.148,317.519L487.015,318.527L489.769,316.222L492.273,314.762L494.609,313.039L496.527,311.524L498.161,309.154L498.28,306.718L497.575,303.616L497.797,302.347L499.661,300.519L502.734,298.297L505.543,297.231L507.323,296.122L508.319,296.522L508.823,298.217L507.892,301.004L507.903,303.456L508.701,303.808L508.763,305.536L508.949,308.652L507.805,308.105L507.154,308.465L507.348,308.985L507.97,308.728L508.25,309.72L508.268,311.51L508.742,311.938L508.853,313.388L509.185,313.635L509.448,315.647L509.13,316.912L508.575,317.302L508.355,318.883L509.662,319.058L509.759,318.376L510.9,318.393L511.295,318.376L511.792,317.394L512.709,316.91L513.123,317.064L513.566,316.648L515.201,316.264L516.666,315.466L517.565,314.566L517.785,313.987L518.887,313.686L519.743,313.565L520.552,313.077L521.065,312.465L522.715,312.257L523.249,312.091L524.484,312.28L525.715,312.627L527.089,312.607L528.32,313.169L528.186,313.648L528.352,314.525L529.221,315.669L528.988,317.268L529.232,318.895L529.781,320.56L530.339,321.416L531.096,323.034L530.738,323.653L531.076,325.403L531.7,326.277L531.423,327.577L531.975,328.521L532.739,328.88L534.413,330.517L536.336,331.387L538.57,332.21L540.347,332.96L540.623,333.822L542.025,333.287L542.202,332.809L543.529,333.266L545.032,332.126L546.017,330.401L547.657,328.575L548.264,326.857L550.149,326.111L550.202,326.541L552.07,325.696L553.815,325.556L555.393,326.102L557.113,326.471L558.832,325.67L559.975,321.759L561.088,320.646L560.518,319.427L559.56,316.06L560.511,313.423L562.438,312.269L562.302,311.402L564.885,310.334L566.362,307.227L567.145,305.781L567.708,303.305L568.893,302.902L570.193,303.342L570.244,304.827L570.606,305.682L569.03,307.107L570.906,308.102L571.883,309.94L571.636,312.771L574.378,314.913L575.608,313.907L574.87,310.95L573.213,310.266L571.586,307.722L574.613,304.128L573.277,302.768L573.724,301.093L576.198,302.836L578.368,301.643L581.479,302.381L582.278,303.435L585.055,301.85L588.12,299.554L590.839,300.016L593.48,299.023L594.512,296.93L594.001,296.057L597.673,293.549L601.325,291.236L599.382,293.827L601.518,294.759L604.176,293.485L607.702,293.682L610.14,296.08L611.734,294.991L613.564,295.022L616.595,294.973L620.251,295.986L621.68,297.717L622.984,297.036L626.056,297.66L628.301,298.08L632.891,296.313L632.752,295.448L635.29,293.497L639.721,292.172L641.219,291.828L644.464,291.084L650.76,291.785L652.629,292.898L653.713,291.969L656.374,293.431L664.204,298.71L666.807,298.121L669.294,300.728L669.266,305.67L671.397,306.256L678.675,303.009L680.406,308.039L682.429,302.962L688.095,301.909L695.867,301.217L698.705,303.14L698.772,306.364L703.255,302.096L712.298,300.331L718.887,296.547L726.5,297.481L733.497,300.521L737.368,300.257L741.469,298.439L743.475,299.305L746.083,305.45L747.323,308.319L746.659,317.787L744.786,322.121L739.585,331.627L737.749,338.077L735.347,343.322L734.336,343.833L733.803,347.569L735.642,355.561L735.792,362.465L735.903,365.35L735,367.416L735.41,373.052L732.711,379.536L732.955,383.735L730.425,386.392L730.116,388.941L726.331,390.252L721.331,393.58L719.418,396.039L716.035,398.436L713.067,402.642L711.45,407.067L711.784,409.789L712.876,411.478L713.377,415.105L713.207,417L711.696,419.603L710.373,426.599L708.753,430.103L707.377,432.332L707.205,435.862L706.073,438.362L705.642,440.81L703.319,443.72L701.138,443.863L699.853,444.769L696.919,444.429L695.204,445.272L692.914,444.247L693.426,445.922L697.794,447.171L698.332,449.45L700.471,450.144L700.964,451.712L700.211,456.657L697.298,459.832L692.783,462.59L690.049,463.491L691.4,465.045L691.995,467.516L693.143,468.838L692.273,470.542L690.157,472.067L687.443,472.045L686.968,473.261L688.793,476.056L690.746,476.213L691.492,474.677L692.921,475.922L691.356,477.836L690.552,480.567L691.791,483.748L692.12,485.612L690.138,486.641L689.323,489.032L689.952,491.595L693.149,492.746L695.427,492.359L696.163,495.466L694.725,498.415L695.416,502.688L694.338,504.866L694.377,506.735L696.794,509.625L699.041,510.764L698.174,511.029L696.527,511.92L696.087,513.191L695.12,515.267L696.562,518.37L695.86,518.893L693.275,519.093L689.936,518.22L686.643,517.926L684.854,516.392L684.223,514.295L682.031,512.931L678.516,508.087L677.495,504.747L678.07,501.17L674.606,502.274L674.809,498.502L672.442,493.313L675.315,492.882L672.724,486.288L670.861,486.407L672.436,490.365L670.899,490.794L668.977,486.333L666.412,480.655L666.197,478.113L663.863,475.771L661.713,472.727L662.596,472.049L661.188,466.666L660.054,461.193L658.531,456.375L655.433,452.459L654.762,449.678L652.353,446.33L651.748,441.951L648.907,436.067L646.177,429.469L643.136,422.289L640.053,417.421L636.943,413.414L633.048,413.285L632.041,412.154L624.459,412.391L617.107,412.106L613.59,411.541L610.637,409.675L610.515,408.456L605.142,405.796L597.982,401.592L590.322,396.685L587.9,395.921L585.062,393.983L580.866,393.236L577.464,393.238L577.363,390.992L573.196,388.527L572.338,385.319L573.331,381.337L573.111,377.407L571.15,376.165L571.122,378.738L567.807,378.282L567.709,376.771L564.492,373.559L565.297,372.235L564.141,369.342L563.921,365.749L562.834,364.048L564.363,361.965L565.97,358.81L564.872,357.719L566.023,356.652L564.861,354.57L564.95,352.557L566.534,351.294L566.724,347.836L566.979,344.931L565.259,344.656L564.756,341.938L562.244,338.696L562.453,337.262L560.332,334.241L558.015,332.913L556.388,332.411L554.718,330.725L555.041,329.27L554.097,329.463L552.9,328.54L550.796,328.371L549.473,329.389L549.411,331.066L548.517,332.75L547.849,333.272L547.884,334.251L550.406,335.508L549.731,336.5L549.507,337.339L548.026,338.391L546.42,336.353L546.278,337.258L545.066,337.623L543.711,336.404L542.224,336.88L541.16,336.886L539.72,337.659L539.978,338.566L539.342,338.177L537.143,338.273L536.125,337.804L536.237,336.913L535.754,336.12L534.44,335.667L532.81,335.588L531.455,335.683L530.776,334.66L529.619,334.423L530.279,335.446L529.97,336.728L528.767,336.04L527.529,336.212L526.761,335.653L526.337,334.456L526.31,333.003L525.154,332.938L525.65,331.801L524.028,331.173L521.873,330.41L520.654,329.479L518.797,328.978L516.475,328.078L516.643,327.31L517.404,327.607L517.563,327.219L516.556,326.313L515.422,326.474L515.362,327.549L513.375,328.432L512.021,328.646L510.348,328.555L508.364,329.208L507.111,328.835L505.126,328.98L502.924,329.909L501.086,329.866L498.713,329.104L493.498,326.668L491.306,326.201L488.125,326.409L486.182,327.543L483.648,330.264L481.889,331.433L479.008,331.448L476.019,331.821L472.052,331.363L469.06,331.91L464.285,331.667L460.615,330.911L459.416,330.161L457.156,330.718L452.82,330.852L450.821,329.509L446.059,328.597L443.624,326.589L442.369,324.835L443.692,323.989L443.102,322.92L443.895,321.54L443.713,320.096L442.106,318.641L441.524,317.101L439.888,315.419L435.834,312.323L431.369,310.191L429.119,308.118L425.424,307.295L424.576,306.453L424.993,303.733L422.803,303.249L420.202,301.771L418.978,299.085L416.717,299.209L414.149,297.492L412.081,295.82L411.845,294.546L409.467,291.778L407.869,288.819L407.901,287.201L404.824,286.003L403.407,286.388L400.953,285.565L400.275,287.387L400.997,289.335L401.435,292.49L402.946,294.017L406.229,296.423L406.971,297.302L407.636,297.487L408.253,298.85L409.017,298.65L409.979,301.24L411.347,302.065L412.328,303.399L415.135,305.001L416.774,308.667L418.174,310.251L419.497,311.981L419.875,314.193L421.976,313.82L423.855,315.328L425.553,316.844L425.523,317.64L423.82,319.717L423.046,319.901L421.694,317.56L418.677,315.8L415.363,314.463L413.032,313.884L413.042,310.653L412.277,308.447L410.125,307.551L407.003,306.232L406.417,306.916L405.259,305.998L402.454,305.472L399.747,303.313L400.076,303.015L401.96,302.921L403.614,300.982L403.75,298.999L400.299,296.482L397.697,294.961L396.122,292.026L394.576,288.991L392.695,285.343L391.125,281.374L390.522,279.179L388.026,276.472L386.21,275.727L385.848,274.518L383.691,274.004L382.382,272.734L378.915,271.819L378.015,271.044L377.753,268.839L374.591,264.43L372.224,258.706L372.442,257.845L371.07,256.383L368.85,252.868L368.779,249.76L367.316,247.489L368.421,244.511L368.72,241.309L368.096,238.343L369.767,234.976L370.575,231.631L371.362,228.272L371.467,223.199L370.967,219.909L370.378,218.104L370.814,217.396L374.817,218.949L375.987,222.632L376.835,221.67L376.687,218.519L376.046,215.334L375.653,215.308L370.688,211.267L368.969,209.506L364.395,207.581L363.53,204.138L364.31,201.857L361.388,199.973L361.553,196.899L359.196,193.882L359.557,191.929L358.576,190.37L356.815,188.948L356.946,185.562L354.846,182.143L354.602,178.37L352.641,177.861L349.37,177.278L347.298,175.781L344.451,171.053L342.85,169.945L340.025,167.83L337.342,167.504L334.454,164.766L333.009,162.516L330.739,162.672L330.005,165.375L328.928,165.276L326.57,165.311L324.482,165.949L322.202,165.947L322.956,163.735L325.393,160.476L327.702,160.033L327.666,158.929L324.582,160.141L322.279,162.086L318.609,163.562L319.002,165.832L316.136,167.613L313.545,168.188L311.284,168.382L310.064,169.66L306.439,169.978L305.038,171.239L302.232,171.507L301.193,170.579L299.071,170.535L296.688,170.56L294.626,170.719L291.153,169.697L291.228,168.999L293.997,168.769L296.244,168.857L299.105,168.225L301.415,169.126L303.03,168.272L306.495,167.621L307.247,167.155L309.145,166.643L310.84,164.222L312.78,162.631L310.314,162.672L310.11,161.794L308.532,162.545L308.455,160.224L307.319,161.191L307.695,159.155L305.304,159.552L304.331,158.955L305.405,156.869L306.434,155.805L306.177,153.968L303.792,153.327L303.524,150.886L303.034,149.371L304.278,147.451L304.124,145.203L305.981,143.625L308.393,142.491L310.054,141.027L311.348,141.535L311.961,142.743L314.165,141.736L315.001,142.688L316.757,142.213L317.486,140.369L317.102,139.232L318.977,138.414L318.106,137.948L316.164,137.843L315.244,138.39L314.675,136.872L312.515,135.987L311.15,133.716L311.582,131.848L311.424,128.496L314.224,128.32L318.23,128.518L319.271,129.229L317.9,131.014L320.745,132.649L321.133,129.602L320.483,127.104L320.836,124.561L320.747,122.076L319.951,119.64L321.966,118.077L324.106,119.44L326.742,118.597L328.253,116.786L330.638,115.559L332.05,115.764L335.34,115.126L336.253,116.002L339.331,114.572L340.642,116.351L340.507,118.741L341.481,118.118L343.451,119.229L342.887,120.231L344.487,121.718L346.013,121.72L348.189,123.999L350.634,125.126L351.471,125.974L353.619,125.64L355.282,127.427ZM462.641,157.109L463.173,154.938L465.47,154.258L465.752,155.016L464.676,157.768L463.438,158.048ZM449.888,110.978L447.451,108.843L446.73,107.068L447.139,106.574L449.977,106.208L453.194,108.082L453.94,109.339L452.651,109.694L451.352,110.059L450.361,111.154ZM469.422,156.504L469.548,155.136L470.258,154.97L471.023,155.589L471.28,157.803L470.4,157.759L469.461,156.795ZM429.042,102.988L428.934,105.052L426.982,104.68L425.081,103.267L425.155,100.872L426.539,99.436L428.121,101.316ZM424.844,89.051L424.4,89.215L422.257,88.804L421.565,87.188L423.745,87.337L424.787,88.394ZM419.889,81.73L421.63,83.835L421.889,85.935L420.595,87.048L419.399,85.63L418.449,83.403L417.821,80.941L419.201,81.298ZM436.695,105.473L434.516,105.084L430.731,103.674L429.447,100.778L428.519,98.115L426.666,95.762L424.083,95.077L422.304,93.302L422.174,91.018L424.579,91.434L426.318,93.228L428.509,93.139L430.034,94.885L430.424,96.953L432.13,98.064L433.283,99.255L434.903,99.293L436.718,99.481L438.046,98.008L440.067,97.055L441.946,96.964L443.94,98.57L445.124,100.595L445.039,102.149L443.845,103.714L442.137,103.476L439.113,104.975ZM404.47,82.225L406.198,83.631L405.922,85.242L403.72,86.189L401.821,83.735L402.753,82.244ZM404.602,78.526L406.151,80.17L404.831,80.888L402.898,80.249L402.889,79.427L403.983,78.061ZM531.472,166.279L531.98,168.842L532.765,172.28L533.149,170.373L534.772,169.963L534.937,171.466L537.078,170.877L537.325,169.494L539.729,168.781L540.853,171.274L541.677,169.694L543.107,170.922L545.063,172.093L546.302,175.147L545.576,175.983L543.971,176.541L542.538,173.977L541.764,174.073L541.595,178.261L540.434,179.092L540.692,176.717L538.439,177.529L536.632,179.31L533.041,182.06L532.15,181.45L532.55,179.57L531.204,179.429L531.447,176.528L529.834,170.536L529.637,168.026L530.317,165.784L531.185,165.225ZM458.59,146.491L460.902,147.374L463.248,148.048L464.2,149.885L465.239,149.183L466.954,150.081L466.07,151.808L463.141,151.695L461.487,150.193L460.715,152.778L459.112,155.482L457.647,153.301L455.477,154.242L456.229,151.904L455.246,148.652L454.38,144.73L455.667,144.789L456.661,146.522L457.238,145.672ZM452.06,112.695L452.299,110.415L456.035,111.731L458.755,113.187L459.932,115.076L461.552,112.999L464.31,115.154L468.078,115.247L470.097,116.32L473.563,119.464L472.505,122.753L476.974,123.532L479.444,123.06L483.51,125.298L485.582,124.064L486.996,126.965L487.654,132.916L485.025,132.495L480.702,130.272L479.318,131.833L480.467,134.118L483.207,135.409L486.091,135.894L487.26,136.482L490.438,139.408L491.606,142.284L489.226,142.538L483.916,141.909L487.809,143.771L490.626,144.94L491.627,146.005L486.816,147.107L482.439,146.841L479.649,146.021L479.585,144.698L476.35,143.892L473.238,143.074L473.838,144.176L469.785,146.69L467.854,145.863L467.481,142.563L470.226,141.333L472.94,139.458L471.737,138.285L471.194,136.084L470.882,131.308L469.548,129.707L468.287,128.556L465.224,127.505L461.824,127.23L462.135,125.792L459.442,123.676L458.174,123.87L456.445,122.748L456.343,124.31L454.173,125.68L448.757,126.038L445.281,125.324L442.736,125.03L440.997,123.567L441.727,121.189L439.746,121.458L437.71,116.618L437.269,112.08L437.888,109.86L440.59,107.979L440.886,111.37L443.029,114.235L442.664,110.042L444.882,107.28L449.086,111.707L450.268,114.865ZM429.147,107.448L431.88,107.511L434.693,108.565L434.154,113.238L432.835,114.322L432.391,118.111L430.716,117.983L428.704,113.601L428.08,111.068L428.219,108.879ZM389.43,95.138L392.035,90.437L394.872,86.044L396.768,85.537L398.5,84.122L398.243,88.525L397.177,90.797L395.929,91.456L393.31,94.531L391.101,95.924ZM353.826,194.213L356.141,194.195L354.46,198.331L355.897,201.568L354.924,201.438L353.856,199.564L353.37,197.748L352.458,196.435L352.427,194.749L352.849,193.588ZM410.25,77.191L412.423,78.448L415.635,81.092L417.005,84.006L417.932,86.491L415.997,85.618L413.84,83.436L411.338,82.751L412.146,81.213L410.639,79.51ZM373.901,217.102L372.39,217.537L368,215.484L367.365,214.091L365.14,212.574L364.831,211.47L362.21,210.536L361.569,208.418L361.952,207.579L364.549,208.648L366.088,209.35L368.55,209.942L369.277,211.309L370.39,213.191L372.979,214.931ZM390.31,103.798L392.303,104.422L396.098,103.719L397.535,104.82L399.183,106.525L397.159,108.426L393.067,113.069L390.798,117.081L390.625,119.268L385.992,122.46L385.377,120.419L382.054,118.284L383.038,116.065L384.623,112.178L386.363,108.557L385.379,105.566ZM409.837,96.434L410.913,95.77L412.313,96.294L412.895,99.024L412.396,101.447L407.729,101.234L404.184,102.58L401.904,102.036L401.684,100.236L404.633,98.76L398.078,98.584L396.087,98.227L398.153,92.296L399.453,90.318L403.302,93.074L405.896,97.038L408.338,98.076L406.017,92.302L407.06,90.591L408.431,91.578L409.122,94.349ZM413.33,111.57L415.301,113.928L416.968,118.993L417.974,122.563L421.09,125.273L424.449,127.761L424.668,129.854L421.991,130.067L423.394,131.966L423.118,133.659L419.849,132.667L416.648,131.051L414.626,131.069L411.378,132.171L406.689,132.01L403.296,131.732L402.201,129.218L399.577,127.461L397.882,128.425L395.678,125.12L396.911,124.314L399.758,122.743L402.352,123.51L404.686,123.227L401.178,121.199L397.303,121.986L394.772,122.502L393.933,120.894L398.044,117.885L395.367,118.649L392.464,118.017L394.076,113.895L395.304,111.572L399.696,107.204L401.35,108.52L400.553,110.696L404.147,110.159L406.512,113.32L408.144,111.112L409.719,113.116L411.493,118.361L412.099,116.426L410.461,110.959L411.729,110.47ZM422.694,114.58L420.457,111.101L421.643,108.733L423.523,109.936L425.823,109.38L426.536,110.89L425.813,113.307L428.471,115.513L429.314,119.988L427.312,121.869L425.752,121.411L424.308,119.482L419.831,115.315L419.576,113.688ZM412.892,108.832L414.836,108.955L416.111,110.271L415.279,113.483L412.468,109.472ZM420.734,93.382L422.228,96.012L422.924,98.828L423.274,102.82L421.248,103.221L419.668,102.241L419.079,99.079L417.049,99.251L416.232,94.977L417.597,95.325L419.061,93.635L420.803,94.103ZM417.795,70.589L417.895,68.709L418.638,68.299L417.878,66.831L419.673,66.553L421.748,69.906L423.586,71.174L425.355,72.222L427.467,76.144L429.233,77.905L428.648,79.837L428.431,84.416L426.808,84.963L424.493,84.297L422.731,81.921L422.142,79.762L422.446,78.174L420.717,78.186L419.146,76.128L417.862,73.304ZM419.065,62.436L419.766,61.171L420.533,60.916L421.534,59.732L421.605,57.156L422.539,57.367L423.986,59.075L423.001,55.434L423.345,54.185L424.068,53.172L425.662,52.327L426.304,52.908L427.286,51.129L428.633,50.962L429.957,50.711L431.57,50.315L433.097,50.294L435.062,51.176L436.117,52.748L436.58,56.324L436.003,58.486L436.296,60.162L437.536,59.253L438.308,63.727L438.234,66.002L439.726,71.33L438.725,73.039L438.853,74.417L436.788,76.024L438.245,76.301L438.191,77.53L440.258,80.013L440.395,82.226L439.789,84.286L440.368,86.579L439.8,88.623L440.489,89.802L442.026,89.043L442.662,90.33L441.472,94.368L438.162,93.62L435.388,95.079L433.542,94.681L431.379,94.643L430.361,92.011L431.886,90.542L429.957,86.544L430.426,86.075L433.972,88.086L431.267,84.7L429.307,83.817L429.275,81.476L430.383,79.839L429.848,77.75L427.74,75.618L426.236,72.552L428.586,72.466L429.493,72.991L429.812,70.504L427.764,70.183L425.102,70.996L422.93,69.008L421.421,66.492L419.917,64.648ZM467.074,132.332L466.79,133.934L465.323,134.809L463.997,132.933L463.444,130.356L464.396,129.248L466.025,129.933L466.941,131.692ZM432.61,130.385L434.034,132.131L433.442,133.791L430.908,132.439L429.69,132.958L426.978,130.812L428.106,129.379L428.764,127.33L430.758,128.679L431.909,129.508ZM518.947,182.558L519.415,181.883L522.282,180.945L524.958,180.818L525.376,181.307L524.531,182.005L521.554,182.773ZM525.308,190.166L526.901,191.103L528.546,190.514L530.253,189.18L530.109,191.012L529.528,191.694L526.281,192.184L525.172,191.548ZM253.958,283.045L254.318,283.587L254.561,284.256L254.722,285.758L254.56,285.897L253.101,285.977L251.929,285.975L251.23,286.278L250.755,285.44L251.3,284.601L251.435,283.192L251.759,282.924L252.518,282.674L252.648,281.953L252.963,281.75L253.145,281.924ZM253.403,279.991L252.974,280.239L251.905,279.948L251.781,279.031L251.594,278.603L251.668,278.392L252.078,278.279L252.917,279.117ZM251.949,277.551L251.682,277.831L250.24,276.919L250.653,276.66ZM249.35,273.946L249.47,274.269L249.707,275.728L249.461,275.821L249.295,275.674L248.391,275.026L248.424,274.143L248.384,273.958ZM246.538,270.368L246.186,271.1L245.694,271.212L245.096,270.143L245.358,270.003L245.948,269.948ZM301.118,148.607L302.078,149.752L301.383,151.134L300.125,150.996L299.569,149.67L299.296,148.106ZM317.566,169.012L318.619,169.756L318.848,171.152L316.519,172.138L314.103,172.646L313.641,171.352L314.182,169.623L316.376,169.126ZM302.079,131.31L302.375,132.66L303.435,132.998L303.827,134.795L304.807,136.326L304.434,136.613L302.91,136.519L302.444,134.941L302.4,133.897L301.117,133.098L301.036,132.528ZM1523.059,292.635L1531.868,292.155L1541.287,290.739L1545.108,291.914L1548.246,293.393L1549.447,296.361L1558.253,295.777L1559.821,298.197L1555.217,301.016L1556.747,304.173L1561.613,305.729L1565.444,310.071L1568.352,308.613L1568.349,311.124L1572.41,310.346L1570.922,312.035L1576.605,312.028L1576.137,313.844L1572.733,315.626L1571.357,314.761L1566.967,315.976L1561.874,317.302L1557.723,315.595L1554.637,313.924L1551.569,310.435L1545.053,310.993L1541.337,314.314L1538.811,317.293L1539.978,320.733L1536.764,324.014L1534.171,324.311L1529.647,326.163L1525.075,323.993L1520.595,325.071L1519.852,326.912L1514.684,329.537L1515.538,324.884L1517.856,322.285L1515.591,317.545L1512.616,314.43L1503.537,314.419L1500.059,315.776L1492.764,314.489L1492.257,317.479L1490.855,318.717L1489.446,317.443L1488.813,315.347L1485.083,314.605L1488.84,310.474L1491.745,308.982L1491.033,307.837L1485.137,311.092L1482.661,309.002L1478.837,310.069L1476.388,308.532L1481.365,304.255L1482.926,301.393L1490.138,299.773L1491.337,301.354L1494.775,308.999L1499.826,309.712L1501.927,302.373L1506.075,296.451L1509.972,294.277L1514.203,294.083L1517.952,294.232ZM1585.083,266.899L1587.485,267.879L1588.311,271.008L1586.465,273.708L1585.204,270.367L1583.696,268.49L1580.879,267.695L1577.353,266.592L1573.009,266.848L1574.534,264.364L1577.84,264.567L1579.938,264.995L1582.548,265.303ZM1577.841,284.887L1574.853,287.845L1572.124,290.588L1569.229,291.947L1564.699,292.332L1561.55,292.142L1561.812,290.111L1566.669,288.647L1569.605,286.736L1570.222,283.403L1571.009,282.853L1571.776,285.854L1574.918,283.85L1576.382,280.945L1579.473,277.098L1578.652,273.605L1582.174,271.707L1583.421,272.187L1583.457,275.862L1581.657,280.736L1578.651,282.707ZM1598.475,271.739L1600.398,272.734L1603.425,278.387L1606.29,281.923L1605.412,283.334L1603.695,283.196L1601.043,279.488L1598.285,275.604L1596.92,271.132L1597.781,270.059ZM1469.707,356.665L1468.642,360.717L1466.116,363.04L1465.534,362.784L1465.303,361.322L1465.789,358.208L1468.533,354.891L1468.564,353.748L1471.186,351.302L1473.565,349.907L1474.475,348.829L1475.989,348.659L1475.102,350.427L1472.144,354.043ZM1499.365,329.222L1498.024,325.947L1498.257,323.917L1498.648,321.895L1499.927,322.812L1500.532,325.052ZM1405.188,314.704L1406.032,310.673L1405.79,306.895L1407.083,306.103L1409.979,306.905L1411.203,308.375L1414.062,308.087L1417.571,307.523L1418.344,309.096L1416.241,310.609L1418.102,312.054L1416.507,314.792L1416.924,319.338L1421.945,321.521L1422.593,323.674L1429.084,325.057L1425.242,327.958L1425.966,331.422L1428.126,335.336L1426.212,340.247L1428.215,344.544L1430.029,351.61L1428.808,350.445L1425.894,354.446L1423.288,352.739L1420.761,353.878L1418.384,353.548L1415.167,357.285L1412.876,356.053L1410.789,357.541L1407.751,358.681L1404.092,353.54L1401.725,353.379L1397.97,350.778L1395.345,347.332L1393.54,343.198L1394.016,339.29L1397.331,339.242L1399.516,336.961L1398.177,333.161L1399.172,331.571L1402.688,328.374L1403.179,323.915L1403.296,320.549L1403.708,318.377ZM1474.914,320.095L1479.573,319.16L1482.125,322.009L1478.277,321.825L1474.977,323.171L1472.953,324.642L1470.313,325.895L1470.295,322.873ZM1467.17,329.777L1464.34,330.345L1462.906,328.805L1466.542,326.526L1468.004,327.523ZM1457.461,301.152L1459.515,303.076L1462.03,302.1L1463.759,303.47L1466.547,307.033L1464.226,307.794L1465.303,310.8L1467.791,312.498L1466.919,313.699L1464.279,311.48L1459.285,306.81L1457.415,303.272ZM1443.215,316.985L1447.263,314.38L1448.616,309.424L1449.946,309.919L1450.128,315.558L1447.955,317.934L1443.83,319.193L1437.94,322.891L1435.22,325.294L1436.478,328.925L1441.447,331.112L1442.493,327.96L1448.604,322.517L1449.188,324.818L1447.326,325.052L1446.869,328.633L1444.449,332.165L1450.208,335.912L1450.198,337.757L1455.403,340.954L1456.514,343.736L1455.168,345.964L1453.201,345.252L1453.44,340.888L1450.706,344.405L1449.347,343.719L1449.098,341.845L1445.512,340.757L1443.941,336.412L1442.169,339.046L1444.672,343.828L1447.434,349.668L1445.544,351.438L1443.555,351.056L1442.809,346.752L1440.446,343.022L1438.979,343.811L1436.567,341.516L1436.711,337.885L1435.624,334.122L1434.184,326.371L1433.731,324.273L1434.609,319.543L1438.258,319.081ZM1455.161,368.312L1449.683,367.998L1452.377,365.631L1454.607,365.861L1456.254,366.402L1456.498,367.516ZM1455.731,359.94L1457.826,358.459L1460.239,355.42L1460.647,357.868L1456.109,361.628L1451.509,363.508L1450.881,362.111L1453.143,359.896ZM1445.282,364.757L1447.163,363.344L1448.722,364.517L1445.316,367.321L1443.311,369.048L1441.57,369.964L1441.627,367.213L1443.398,366.2L1443.628,364.386ZM1409.852,375.377L1411.072,376.426L1417.459,373.221L1417.296,371.281L1424.285,369.646L1426.759,371.391L1431.947,369.345L1437.029,369.347L1434.089,372.791L1429.801,373.29L1426.976,375.018L1423.533,376.624L1420.197,377.679L1415.72,378.43L1413.17,379.427L1412.111,380.651L1405.405,382.58L1403.883,381.361L1400.764,382.835L1400.779,378.054L1404.857,375.96L1408.347,375.876ZM1383.202,362.828L1385.619,365.288L1388.255,366.804L1390.979,365.693L1394.199,367.217L1396.382,372.492L1399.915,378.34L1396.353,380.546L1391.571,379.108L1385.271,378.595L1382.267,377.167L1377.537,375.581L1373.779,373.687L1367.139,369.709L1361.7,368.051L1358.932,364.73L1356.087,361.984L1351.689,361.003L1348.262,358.282L1344.596,357.335L1338.998,354.613L1337.845,352.618L1340.167,351.568L1345.899,349.435L1350.712,351.838L1354.656,353.215L1357.361,353.915L1362.761,356.677L1366.353,354.718L1370.692,356.016L1374.503,358.523L1378.177,359.005L1378.949,363.203L1381.883,363.452ZM698.654,512.151L700.169,513.237L702.397,515.143L705.798,515.864L708.769,515.419L708.806,517.471L707.187,518.482L705.663,517.791L705.789,519.422L704.839,521.238L703.921,521.601L702.747,521.906L700.933,521.653L698.852,522.246L695.622,521.795L692.834,521.224L688.265,519.34L690.109,519.031L693.84,519.534L696.837,519.24L696.891,517.253L696.213,514.759L697.139,512.506ZM557.695,284.914L555.498,285.448L554.268,286.421L552.399,287.156L551.367,288.49L549.3,288.338L549.015,287.175L551.889,286.171L554.184,285.226L554.83,283.954L552.791,283.315L552.163,282.104L550.121,282.6L550.29,281.389L552.085,280.573L554.789,279.699L554.837,278.976L557.028,277.753L559.136,277.596L559.824,277.095L560.957,277.893L562.452,276.947L562.899,277.915L564.213,277.294L566.258,277.616L565.964,279.483L564.228,279.597L563.015,280.479L561.994,280.873L561.81,281.731L560.841,282.548L559.968,282.038L559.284,283.024L559.356,285.831L558.343,285.742ZM1225.044,67.695L1226.134,66.022L1228.875,68.831L1233.214,74.16L1235.35,79.427L1233.751,80.648L1230.595,79.507L1228.263,77.488L1226.036,73.265L1224.462,72.168ZM1236.697,76.332L1240.357,78.701L1241.265,81.046L1237.309,84.957L1235.541,77.052L1235.914,76.181ZM1272.61,66.822L1274.15,63.999L1278.156,61.485L1280.973,65.009L1278.917,69.523L1278.923,72.363L1275.145,72.208L1272.67,68.983ZM1280.48,58.099L1282.659,55.436L1283.967,58.274L1282.886,60.233L1280.33,61.46L1279.015,60.077ZM1284.41,75.69L1283.416,73.104L1283.778,71.181L1286.142,70.594L1287.28,71.295L1286.421,73.362L1284.727,75.648ZM1181.167,70.72L1183.154,69.474L1184.502,69.257L1184.302,70.937L1185.145,69.365L1186.195,68.213L1187.25,69.377L1186.72,70.392L1185.325,71.403L1184.399,71.984L1184.046,73.018L1182.728,74.155L1182.084,72.774L1183.072,70.782ZM1182.715,108.75L1186.777,103.582L1186.721,101.211L1190.096,97.72L1194.814,93.037L1199.323,90.588L1201.598,88.838L1204.108,88.935L1205.124,91.416L1204.32,92.885L1199.487,94.378L1195.095,98.313L1190.264,104.54L1187.525,110.12L1184.518,115.461L1184.277,119.604L1186.942,123.186L1185.898,123.778L1180.575,123.837L1180.493,121.699L1177.871,120.633L1178.15,117.951L1179.895,116.74L1180.322,113.971L1183.94,109.211ZM1353.465,127.13L1356.833,128.766L1359.726,131.215L1363.331,132.757L1370.144,134.686L1366.844,137.252L1370.04,142.077L1374.612,142.294L1376.588,144.004L1373.564,144.322L1374.647,147.64L1371.96,146.049L1369.386,143.47L1366.121,141.122L1364.321,138.796L1360.526,135.445L1356.798,134.268L1352.932,130.69L1352.865,127.634L1350.936,127.296L1351.119,126.034ZM316.091,94.215L316.337,94.206L317.053,95.142L317.378,97.792L316.855,98.224L315.158,98.006L313.803,96.767L312.681,95.688L313.599,94.321ZM523.688,268.431L524.843,267.566L526.676,266.776L527.131,267.531L524.403,269.484ZM526.54,266.089L529.326,266.39L529.915,268.797L529.229,268.66L528.497,267.04L526.715,266.431ZM528.122,272.256L529.009,271.962L531.198,274.051L532.074,275.849L531.467,276.347L529.915,274.906L528.453,274.523ZM711.542,502.772L713.052,499.826L715.141,499.966L715.797,498.173L718.078,499.049L717.958,500.438L715.655,502.469L714.238,501.669L713.213,503.835ZM1155.671,69.352L1157.117,67.671L1158.201,68.166L1157.88,70.661L1157.918,76.171L1154.756,77.211L1152.011,80.827L1150.724,81.352L1147.755,85.302L1146.633,84.807L1146.888,80.495L1148.756,79.245L1148.604,76.915L1150.203,71.461L1152.576,66.952L1155.596,66.532L1154.684,68.701ZM1165.666,71.911L1162.987,74.597L1160.4,74.279L1158.732,72.195L1159.494,70.578L1158.556,69.871L1159.376,66.83L1162.358,66.488L1162.564,68.41L1164.214,67.014L1165.225,69.286ZM1157.296,83.437L1154.215,84.701L1153.398,82.691L1154.733,81.643L1155.203,79.671L1157.475,79.454L1156.709,81.649ZM1157.849,24.926L1155.196,30.215L1152.849,30.006L1152.466,28.034ZM447.533,28.034L447.488,29.458L447.202,34.439L448.239,34.686L448.221,31.207L450.349,29.659L501.657,59.282L500.338,59.62L503.424,60.723L505.092,64.148L505.846,61.701L509.829,64L509.856,64.08L511.557,71.178L511.041,77.439L510.298,79.402L511.031,82.284L513.899,87.656L514.637,93.35L514.181,94.639L513.849,97.577L513.321,100.615L514.558,103.832L516.841,105.926L518.442,108.68L519.222,113.677L522.077,115.293L524.081,118.416L526.397,122.056L524.873,124.558L520.725,124.536L518.265,127.581L515.54,127.346L511.994,125.283L506.445,123.686L504.02,122.22L501.318,119.413L497.127,117.967L495.397,114.98L493.65,114.526L491.217,109.211L491.577,106.127L490.653,104.162L488.366,101.089L488.416,103.69L488.359,104.85L487.923,106.373L485.712,106.489L483.567,103.991L482.285,101.546L483.101,100.517L485.821,99.307L482.213,98.765L480.304,98.366L479.845,99.918L478.29,99.755L476.307,94.942L474.563,94.006L471.614,91.857L467.096,88.354L464.766,87.662L463.377,85.775L459.289,85.05L457.329,86.14L455.21,88.013L453.307,89.785L451.341,88.829L447.987,86.485L449.288,83.58L450.767,82.249L446.461,83.049L443.377,81.848L442.37,79.692L443.865,75.473L444.912,71.142L443.919,68.992L440.877,68.244L440.085,65.628L439.64,60.134L440.045,58.854L438.082,56.502L438.236,53.904L439.033,51.515L440.344,49.849L442.184,50.893L440.761,46.464L443.392,46.916L444.269,46.388L446.547,46.522L443.152,45.533L441.146,43.313L441.146,43.313L439.197,38.283L440.331,36.264L438.677,33.743L438.842,30.995L440.623,25.763L442.15,24.926ZM1149.65,29.66L1149.564,29.866L1151.466,30.664L1149.646,32.638L1146.376,33.53L1148.763,34.7L1151.759,37.494L1151.497,40.731L1149.502,42.982L1144.836,42.203L1143.536,42.526L1141.894,39.952L1142.208,42.466L1138.28,43.842L1134.88,45.156L1129.526,48.867L1126.859,52.48L1126.137,50.642L1124.123,49.478L1122.286,53.57L1118.522,56.524L1117.686,55.311L1114.388,59.757L1113.146,56.702L1111.827,59.625L1110.144,60.154L1108.86,58.41L1108.272,56.198L1105.822,60.064L1103.902,61.304L1104.84,56.917L1103.447,56.74L1102.929,59.683L1100.92,63.527L1097.724,66.338L1095.989,63.711L1097.252,61.349L1098.343,59.282ZM1094.154,61.701L1094.685,64.098L1095.187,66.711L1090.171,64ZM1418.738,574.36L1420.765,573.351L1422.628,571.188L1423.287,571.525L1424.334,573.238L1422.241,577.347L1420.444,576.266L1419.306,574.984ZM1055.858,195.007L1057.9,194.942L1056.529,197.538L1054.328,199.13L1053.817,197.882L1054.71,195.703ZM572.145,274.497L573.743,273.895L574.634,274.195L574.406,275.401L572.277,276.664L570.691,277.766L569.72,276.548L569.849,275.86ZM540.026,292.67L542.137,291.932L544.065,291.898L544.988,292.527L542.961,293.676L542.338,294.694L540.427,295.031L538.17,294.71L538.178,293.773L539.297,292.91ZM519.47,284.199L522.063,283.251L524.342,282.205L527.509,281.985L529.168,282.592L531.662,280.909L533.008,281.143L536.338,281.875L538.798,282.387L539.713,281.854L541.71,281.608L541.954,282.605L544.104,281.622L546.9,281.756L546.947,282.671L545.265,284.09L543.426,285.271L541.336,286.064L537.362,288.522L538.43,285.739L536.863,285.51L534.913,286.247L533.484,285.825L531.954,284.349L530.39,285.286L527.312,285.749L526.148,285.494L522.149,286.816L520.861,286.665L521.605,285.336L518.672,286.517L517.263,289.199L516.054,289.809L515.948,290.813L514.607,291.858L513.206,292.12L514.378,290.375L514.548,288.889L515.599,287.547L516.84,286.214L518.919,284.883ZM1065.607,455.249L1065.117,457.219L1063.778,459.827L1060.363,463.762L1059.709,465.788L1057.81,466.893L1056.279,467.265L1057.047,464.709L1055.469,465.057L1053.738,467.652L1052.126,468.616L1050.513,468.548L1047.693,470.732L1042.94,472.93L1037.379,475.418L1030.139,478.934L1025.185,481.652L1020.78,483.589L1017.968,482.296L1014.536,481.381L1013.689,479.413L1012.526,476.708L1013.148,474.706L1015.258,472.217L1016.361,469.308L1017.968,467.167L1020.352,465.618L1022.102,466.186L1022.998,465.287L1026.398,464.311L1028.396,462.763L1029.007,460.912L1030.181,458.726L1032.475,455.941L1035.1,455.155L1037.316,453.656L1038.961,454.714L1041.294,455.448L1042.99,455.815L1044.413,456.84L1047.942,456.582L1052.516,456.835L1055.08,456.115L1055.977,454.509L1057.022,455.938L1061.134,455.29L1063.186,453.542L1065.832,453.051ZM1657.436,353.926L1659.573,357.371L1658.134,357.432L1657.092,355.031ZM1655.843,352.283L1655.456,350.846L1655.917,347.403L1657.696,349.555L1657.77,353.348L1656.748,352.376ZM1081.654,239.425L1080.912,240.149L1077.301,238.631L1077.578,238.159L1074.957,236.063L1076.057,235.061L1076.842,236.727L1078.791,237.52L1080.479,238.638L1080.159,239.122ZM1056.498,139.858L1054.799,142.048L1051.253,142.98L1046.963,141.08L1045.264,137.877L1049.408,136.846L1051.555,133.22L1055.694,133.805L1058.063,133.985L1059.338,135.411L1059.143,138.996ZM1648.117,373.817L1650.954,377.381L1652.653,379.874L1651.04,380.376L1649.078,378.615L1646.533,375.896L1644.259,372.893L1641.943,369.077L1641.561,367.448L1643.329,368.083L1645.435,370.259L1647.008,372.243ZM1638.094,319.202L1639.273,321.545L1635.877,320.096L1634.29,316.086L1637.127,318.593ZM1636.387,313.631L1635.539,314.29L1632.196,307.975L1631.406,304.189L1633.162,304.971L1634.618,310.184ZM1632.091,313.31L1630.099,312.599L1626.981,310.71L1625.948,309.4L1626.42,307.33L1629.793,309.676L1631.384,311.542ZM1626.565,300.276L1627.688,302.637L1627.836,303.878L1623.792,299.593L1620.911,296.159L1618.921,293.236L1619.779,293.002L1622.267,295.591ZM1612.877,288.016L1615.118,291.07L1613.947,290.888L1611.46,288.351L1609.1,284.672L1609.425,283.749ZM1669.619,453.103L1668.075,454.634L1666.085,456.584L1663.631,457.412L1663.401,456.406L1662.389,455.639L1664.715,453.235L1664.309,451.134L1661.638,449.021L1662.033,447.802L1664.393,447.13L1665.561,444.639L1666.005,442.407L1665.421,439.812L1665.66,439.234L1664.614,437.446L1663.025,433.78L1662.334,430.992L1663.542,431.028L1664.716,433.388L1666.811,434.911L1666.848,438.174L1667.999,442.321L1668.675,440.03L1669.725,441.315L1669.438,443.978L1671.392,445.708L1673.19,446.522L1675.139,445.721L1676.413,446.531L1674.855,449.257L1673.438,450.943L1671.385,450.279L1670.362,451.085L1670.199,452.591ZM1646.645,460.705L1649.458,459.271L1651.551,457.766L1653.385,455.399L1654.666,454.743L1655.532,452.888L1657.905,451.727L1658.172,453.334L1658.461,454.901L1660.793,453.969L1661.222,455.599L1660.851,457.041L1659.429,458.398L1657.006,460.542L1655.27,461.647L1655.877,463.524L1653.772,463.144L1651.122,464.019L1649.87,466.196L1647.556,469.522L1645.08,470.785L1643.519,471.617L1641,471.191L1639.411,469.764L1636.38,469.134L1636.124,467.73L1638.112,465.202L1642.355,462.123L1644.327,461.731ZM1574.328,447.51L1576.332,447.543L1577.002,452.033L1576.016,453.443L1575.987,456.526L1574.765,455.592L1572.864,458.429L1572.2,458.288L1570.276,458.364L1567.958,455.402L1567.202,453.01L1564.95,450.035L1564.787,448.335L1566.895,448.371L1570.156,449.253L1571.851,448.527ZM1502.931,433.93L1500.673,436.697L1498.633,438.37L1498.778,440.214L1498.31,441.883L1496.122,442.889L1494.611,443.852L1492.09,444.287L1490.4,445.432L1488.714,446.361L1487.949,448.66L1487.158,448.865L1486.296,450.303L1485.558,451.812L1483.706,452.557L1482.068,453.356L1478.538,452.762L1476.945,452.866L1476.137,451.157L1477.153,450.129L1477.233,449.248L1476.611,448.233L1475.882,446.02L1474.72,444.408L1471.864,442.099L1470.589,440.623L1469.836,438.879L1467.813,437.483L1467.296,436.642L1465.536,436.068L1463.988,433.913L1461.256,432.361L1460.21,431.29L1462.049,431.952L1459.696,429.658L1461.463,429.818L1462.862,430.556L1462.012,429.042L1459.443,427.388L1458.691,426.575L1457.583,426.013L1456.956,424.104L1457.105,423.057L1456.675,421.333L1455.443,419.697L1455.413,416.867L1456.849,419.103L1456.923,416.349L1458.652,414.098L1459.357,412.032L1460.948,409.736L1462.122,408.815L1463.105,408.799L1464.803,406.443L1466.386,405.192L1466.499,404.262L1467.139,403.573L1468.787,402.842L1471.459,400.342L1472.438,398.075L1472.436,395.91L1473.485,393.327L1473.056,391.899L1472.351,390.003L1473.29,386.002L1475.83,388.362L1476.883,387.023L1475.104,385.916L1475.398,383.734L1477.089,383.825L1476.409,380.942L1477.468,378.326L1477.694,376.52L1479.092,375.103L1478.75,374.056L1480.35,373.79L1480.063,372.837L1481.313,371.604L1482.729,370.329L1485.805,370.872L1488.446,372.209L1490.544,371.263L1492.815,370.627L1491.401,368.878L1492.022,365.051L1493.259,363.302L1492.395,362.59L1493.191,359.628L1494.884,357.221L1496.852,356.842L1499.652,354.671L1498.968,352.614L1495.899,352.518L1497.652,351.003L1500.376,350.89L1502.822,351.671L1506.233,351.297L1507.177,350.389L1509.841,350.624L1511.733,348.423L1513.268,348.141L1513.961,346.922L1516.239,348.248L1515.772,350.966L1514.758,353.291L1513.492,354.002L1514.344,355.466L1513.779,357.986L1512.982,360.551L1513.541,361.569L1517.036,362.559L1520.209,362.665L1522.462,363.278L1525.728,364.588L1526.785,364.163L1528.99,364.428L1529.849,365.46L1533.782,365.451L1536.056,363.081L1536.402,360.552L1536.846,358.381L1536.897,355.863L1537.499,351.955L1536.54,350.074L1536.6,348.689L1535.66,346.35L1535.591,342.763L1536.219,341.516L1535.296,340.277L1535.871,337.426L1536.21,334.538L1536.082,333.162L1537.385,330.686L1538.998,332.473L1539.791,335.295L1540.973,335.397L1541.467,337.29L1543.416,338.995L1544.157,341.474L1544.265,343.19L1546.361,346.144L1548.875,343.348L1550.593,344.729L1552.928,345.724L1552.748,347.915L1554.206,351.436L1555.154,353.436L1556.311,353.594L1557.957,356.991L1557.828,359.423L1559.577,361.925L1564.491,362.714L1567.789,363.847L1570.905,364.878L1570.416,366.122L1573.168,368.154L1575.252,372.42L1576.939,370.975L1578.874,372.397L1579.921,371.427L1580.976,375.895L1584.276,377.809L1586.432,378.995L1590.08,381.757L1591.45,385.019L1591.632,387.49L1591.403,390.233L1593.59,393.503L1593.421,397.351L1592.72,399.457L1591.67,403.418L1591.829,405.807L1591.094,408.917L1589.414,412.942L1586.549,415.378L1585.269,418.712L1584.088,420.873L1583.173,424.456L1581.861,426.613L1581.137,429.667L1580.86,432.412L1581.132,433.621L1579.19,435.217L1575.271,435.865L1572.248,437.856L1570.866,439.533L1569.042,441.429L1566.102,440.181L1564.01,439.845L1564.246,437.836L1562.556,438.833L1560.149,441.963L1557.255,441.461L1555.37,441.217L1553.541,441.304L1550.354,440.872L1547.938,439.109L1546.809,436.552L1545.726,434.934L1543.896,433.863L1540.851,434.165L1541.472,432.217L1540.141,429.812L1539.189,432.61L1536.645,433.955L1537.777,431.618L1537.766,429.49L1538.56,427.466L1537.712,424.938L1535.892,428.601L1534.271,430.311L1533.811,433.363L1531.118,432.614L1530.738,430.78L1528.202,428.861L1526.273,428.074L1526.615,427.115L1522.21,426.278L1520.106,426.864L1516.789,426.198L1511.703,428.34L1508.434,430.848L1505.635,433.122ZM1283.823,369.823L1284.326,375.146L1282.874,377.421L1279.388,380.425L1276.515,377.466L1274.336,370.789L1274.681,362.213L1278.09,363.472L1280.725,365.859ZM1360.791,282.521L1357.915,282.879L1356.331,280.237L1356.926,278.053L1359.475,275.442L1361.102,274.593L1362.408,275.398L1361.978,277.46L1362.371,279.617ZM1382.061,243.394L1383.837,248.967L1384.415,252.067L1381.273,250.611L1379.454,248.72L1378.968,244.923L1379.471,241.395L1381.256,241.4ZM1059.83,216.186L1061.643,217.023L1059.448,218.702L1059.221,219.773L1057.84,220.896L1056.815,218.744L1055.893,217.703L1053.787,214.241L1055.045,213.037L1057.409,215.011ZM1052.316,199.63L1053.952,199.566L1053.772,202.405L1050.88,205.771L1050.056,204.889L1048.542,205.146L1048.277,203.837L1050.615,200.533L1051.298,198.631ZM1090.022,161.078L1089.465,163.013L1086.789,164.786L1086.301,161.771L1086.98,160.32ZM1059.827,146.604L1059.833,146.61L1061.559,145.279L1062.201,142.453L1062.216,142.391L1060.947,139.809L1061.344,138.659L1063.071,138.078L1063.363,136.75L1061.321,137.093L1063.898,134.368L1064.644,132.095L1068.044,129.873L1071.349,128.907L1072.15,130.452L1073.944,132.165L1069.551,133.504L1071.286,134.787L1072.743,136.556L1070.209,138.464L1066.563,139.509L1067.846,141.392L1067.683,141.815L1065.915,146.568L1066.518,148.124L1064.596,152.29L1064.062,153.842L1065.492,156.306L1063.76,157.891L1062.239,157.881L1061.645,159.945L1058.925,159.91L1056.781,157.646L1053.349,155.437L1053.093,154.089L1050.85,154.139L1049.657,152.154L1047.541,151.841L1047.211,150.322L1052.27,150.303L1054.229,151.345L1054.222,151.327L1052.221,148.071L1052.833,146.506L1055.247,147.585L1055.841,145.171L1057.857,143.758ZM1086.336,90.516L1083.829,91.941L1082.414,95.831L1078.584,95.639L1073.575,92.041L1072.161,90.806L1071.556,87.798L1070.441,81.239L1072.894,82.236L1073.118,76.514L1075.178,79.742L1076.278,78.937L1075.68,74.052L1078.722,73.909L1080.343,76.589L1078.866,81.348L1082.071,82.852L1081.989,85.937L1085.247,87.428ZM1405,279.615L1401.71,278.191L1404.355,276.666L1406.243,277.123L1407.469,280.373ZM1416.988,284.957L1417.081,283.537L1415.868,281.3L1417.439,280.004L1418.64,282.509L1418.516,277.898L1420.645,281.165L1420.349,282.974L1420.971,285.691L1420.73,287.311L1417.011,286.25ZM1433.339,282.347L1435.522,284.363L1437.301,286.15L1438.764,290.024L1434.636,287.289L1434.486,290.02L1437.654,291.905L1438.024,294.159L1432.386,294.585L1429.456,292.642L1429.172,290.383L1425.815,290.07L1425.891,292.13L1424.24,292.959L1423.288,296.391L1421.978,295.709L1421.068,292.02L1422.38,289.792L1423.155,287.415L1425.491,288.22L1427.248,285.726L1426.584,283.9L1428.806,282.35L1426.554,279.924L1430.444,279.785L1432.086,281.271ZM1405.77,295.181L1403.816,300.976L1403.721,297.635L1404.535,294.172L1404.786,290.71L1404.089,286.441L1406.542,288.772L1405.793,291.864ZM1396.837,259.935L1397.294,261.468L1399.873,262.935L1401.003,265.919L1400.049,268.048L1401.427,270.791L1403.913,272.811L1405.737,272.126L1406.773,270.898L1411.828,270.143L1412.856,272.019L1414.439,272.111L1415.256,273.76L1411.687,273.776L1409.307,272.874L1409.415,274.521L1406.086,273.9L1403.712,276.119L1401.728,276.384L1400.937,275.003L1401.28,273.615L1399.88,273.474L1400.314,274.834L1397.575,273.988L1396.18,272.929L1393.965,270.084L1395.847,270.333L1392.724,265.431L1391.675,262.15L1393.378,261.025L1395.726,260.705L1396.01,259.368ZM1411.744,281.382L1410.116,280.156L1412.702,279.969L1414.664,278.697L1415.643,280.073L1415.251,282.374L1414.016,284.615L1412.762,283.17ZM1420.587,272.039L1424.35,274.998L1421.239,275.737L1422.162,276.778L1424.538,278.258L1423.613,279.968L1421.665,277.771L1420.579,278.22L1418.561,276.6L1420.592,275.659L1419.582,274.484L1415.79,273.313L1418.785,271.439ZM1393.246,164.157L1394.132,168.723L1396.996,171.143L1398.381,173.935L1400.129,174.72L1400.902,177.647L1399.323,181.779L1395.563,185.925L1395.279,191.894L1392.798,192.393L1390.833,190.627L1387.51,194.836L1385.998,198.454L1383.421,200.849L1387.443,200.681L1389.925,206.37L1389.401,208.749L1387.36,208.724L1385.844,205.913L1383.719,206.415L1381.228,205.445L1382.658,202.81L1382.371,200.18L1383.392,196.859L1383.374,193.664L1386.979,188.805L1389.817,187.038L1387.56,180.403L1390.199,180.111L1390.683,174.404L1390.836,172.18L1388.832,167.816L1385.464,165.512L1384.576,163.044L1386.133,160.177L1391.053,162.17ZM1384.862,146.452L1384.891,143.75L1388.623,145.767L1386.684,150.036L1387.885,154.458L1382.997,156.533L1384.981,160.384L1382.888,162.937L1379.939,160.865L1378.777,157.913L1380.589,155.382L1377.268,151.433L1375.609,148.907L1380.635,148.671L1382.974,147.644ZM1387.533,199.127L1387.351,196.487L1388.903,195.598L1388.796,193.689L1390.965,192.676L1392.1,193.263L1392.325,195.97L1390.608,196.035L1390.007,197.695L1390.827,199.719L1388.654,200.346ZM773.427,608.035L773.945,608.012L775.127,606.736L777.057,607.98L778.997,610.538L780.337,614.162L781.093,616.757L781.897,619.871L780.991,621.733L780.003,623.269L778.856,624.746L777.549,626.051L775.545,625.846L773.739,623.911L772.933,621.37L774.132,619.48L774.194,617.397L773.903,614.784L773.607,612.554L773.527,610.449ZM763.514,624.372L765.266,623.897L767.148,623.889L766.577,621.262L766.048,619.064L767.967,621.242L769.099,624.359L770.114,627.161L768.219,626.808L766.82,627.759L764.928,626.148L764.808,625.919ZM730.853,583.871L731.28,582.862L732.654,582.2L731.672,579.816L730.795,578.208L728.757,574.873L728.282,572.519L729.028,571.203L730.563,572.366L731.737,573.759L733.34,575.377L734.768,577L736.182,578.784L737.417,580.685L738.181,582.525L738.806,584.355L737.869,585.69L737.179,587.28L735.748,588.063L735.215,585.998L734.336,587.409L733.554,588.8L731.95,588.081L730.75,586.36ZM708.249,616.619L707.975,615.167L709.352,613.873L710.643,612.197L711.928,611.244L712.281,609.442L714.8,610.733L713.956,611.418L713.257,613.082L712.272,614.537L711.611,616.525L710.192,617.244ZM1687.439,629.416L1688.96,628.696L1688.794,630.986L1688.71,633.378L1690.005,634.682L1688.215,634.834L1686.687,634.196L1686.408,631.94ZM1685.758,622.335L1687.048,622.598L1686.645,624.734L1685.823,628.111L1685.684,627.17L1685.405,625.088ZM1641.443,614.986L1643.024,613.192L1644.072,614.817L1643.897,616.942L1643.363,619.2L1642.114,621.79L1640.288,621.76L1640.403,619.279L1641.013,617.087L1641.158,616.744ZM711.136,642.105L709.954,639.504L711.607,639.345L713.328,639.78L715.077,639.752L714.15,637.367L716.293,636.737L717.379,635.203L719.084,634.492L719.453,632.423L719.295,630.173L720.207,628.378L721.481,627.172L722.943,626.149L721.462,623.962L719.734,623.553L718.016,622.917L716.97,624.297L715.126,623.781L713.484,622.827L710.269,620.868L711.277,620.253L712.313,618.673L712.896,616.76L714.27,615.783L716.074,615.545L717.712,616.286L718.833,614.889L719.195,612.876L719.437,610.574L719.907,608.748L721.516,608.544L722.252,606.829L720.278,602.939L722.478,603.871L724.018,603.414L724.724,601.796L726.721,602.629L727.955,601.59L729.373,601.01L731.104,600.919L730.611,598.663L729.858,596.825L731.985,597.7L732.949,596.195L734.547,596.372L736.182,597.363L737.145,595.982L737.522,594.3L737.806,592.462L738.653,591.053L739.796,589.642L740.783,588.254L741.29,586.704L741.149,584.932L740.356,582.849L739.223,581.061L737.918,579.51L736.562,578.001L735.255,576.501L734.107,575.147L733.111,573.524L732.31,571.807L732.032,569.942L731.595,567.975L730.924,566.26L729.706,564.633L728.687,563.127L728.362,560.985L728.482,559.442L728.597,557.523L728.911,555.819L729.47,554.135L729.186,552.183L729.46,550.756L729.908,549.359L731.255,548.538L731.637,546.928L732.382,545.75L733.463,544.814L734.181,543.414L734.558,541.875L735.646,540.999L737.029,541.697L736.969,543.194L735.826,544.887L735.511,545.968L734.07,545.76L732.955,546.615L732.323,547.938L731.683,549.37L731.5,550.828L732.041,552.459L732.847,553.908L734.173,554.975L733.639,556.326L732.451,557.206L732.348,558.893L732.178,560.529L732.229,562.684L732.811,564.313L734.163,565.8L735.532,566.794L737.118,567.312L738.783,568.229L740.145,569.709L741.21,571.224L742.42,572.81L743.717,574.064L744.877,575.605L747.019,579.768L748.178,581.381L749.128,583.202L750.353,584.941L751.37,587.556L751.687,589.781L751.816,591.655L750.713,592.877L751.1,594.81L751.308,596.733L750.765,599.262L749.899,600.667L749.311,602.35L748.687,604.117L749.174,606.598L747.909,607.651L746.308,608.457L745.252,609.792L743.905,610.854L745.446,612.569L747.212,612.51L748.977,613.244L750.601,614.699L750.782,616.919L749.183,617.389L749.044,619.531L750.452,621.668L751.828,623.722L753.791,624.815L755.268,626.693L757.413,628.086L759.316,627.984L761.421,628.781L763.405,630.043L765.618,631.268L767.717,631.442L770.161,632.483L772.148,633.949L774.312,635.727L776.269,638.639L777.625,641.043L777.366,638.53L777.631,636.407L778.007,634.175L778.872,632.373L779.585,630.517L781.436,630.358L783.575,631.321L785.517,632.994L785.363,630.232L786.084,628.487L788.199,628.704L789.689,627.682L791.181,626.71L793.002,626.369L795.008,625.917L796.428,624.864L795.592,622.464L795.009,620.188L794.856,617.954L792.79,617.568L790.73,617.946L788.709,617.484L788.084,615.183L787.567,610.798L787.885,609.63L789.34,608.619L791.17,607.729L792.479,606.421L793.86,605.162L794.879,603.295L796.632,602.857L798.425,602.681L799.349,602.555L801.467,602.065L803.487,600.668L805.219,599.089L806.959,597.345L808.569,595.681L810.651,593.544L812.081,591.496L813.595,589.684L814.291,587.528L812.919,586.555L813.704,584.311L814.909,582.522L816.605,581.28L818.437,579.864L820.236,578.107L821.774,576.024L822.963,573.632L824.354,572.202L826.124,572.413L826.505,574.033L828.241,574.192L828.734,572.363L829.963,570.463L831.465,570.965L831.377,572.783L833.043,573.128L835.159,572.388L837.126,571.978L838.653,572.425L838.621,574.472L840.67,573.085L842.37,572.461L844.164,572.093L845.929,571.758L847.736,570.978L849.536,570.635L851.108,569.961L852.591,568.607L853.108,570.052L854.759,569.876L854.776,572.293L854.776,574.139L856.634,573.785L858.039,572.259L859.926,571.578L861.463,572.551L861.117,574.393L862.977,573.247L864.574,573.393L866.101,573.968L867.335,574.743L868.377,576.003L869.5,577.007L869.199,578.745L869.177,580.457L870.859,580.53L872.27,581.27L873.508,582.177L874.761,583.024L876.209,583.322L877.662,583.78L879.368,583.495L880.857,583.687L882.201,584.292L883.791,583.998L885.96,582.484L887.528,581.838L888.149,583.533L887.502,585.259L887.655,587.068L888.921,587.939L888.51,590.025L888.404,591.804L890.107,592.131L891.819,591.004L893.229,591.474L895.278,591.612L896.634,592.399L898.359,593.282L899.786,593.628L901.316,593.989L902.746,594.401L903.195,596.129L905.19,596.338L906.699,596.458L907.463,597.956L908.995,598.53L910.384,597.782L912.074,598.332L913.476,599.116L914.898,600.355L915.964,601.726L916.494,603.434L916.917,605.386L916.558,607.582L915.042,608.928L914.46,611.423L913.862,613.258L914.254,615.761L913.641,617.714L913.104,619.96L913.477,621.914L914.767,622.961L916.964,623.65L916.66,626.041L916.66,626.056L800,693.41L800,693.41ZM1483.34,626.056L1484.404,624.405L1485.453,622.861L1486.38,621.186L1487.023,619.315L1491.678,620.558L1492.669,621.311L1494.417,622.74L1494.895,625.099L1496,627.467L1497.711,628.269L1498.224,626.298L1499.782,627.603L1501.083,629.474L1502.598,631.382L1504.303,630.99L1505.287,629.414L1505.139,627.085L1503.807,625.072L1502.467,623.46L1501.518,621.669L1500.716,619.808L1499.477,618.369L1497.904,616.08L1497.943,614.788L1498.568,612.871L1498.832,610.968L1498.987,608.925L1497.916,606.969L1496.789,605.366L1495.995,603.169L1495.896,600.889L1495.93,599.016L1495.259,597.147L1495.161,595.754L1495.287,594.186L1496.528,593.056L1497.043,591.46L1497.592,589.711L1498.838,588.396L1498.681,586.512L1497.128,583.627L1498.353,584.036L1500.286,584.988L1501.74,584.562L1502.961,583.629L1503.599,582.034L1504.901,581.075L1505.959,580.037L1506.347,578.963L1507.433,578.212L1508.882,578.13L1509.486,576.65L1510.695,575.493L1511.362,574.03L1512.929,573.472L1512.816,571.57L1512.547,569.84L1512.663,568.143L1512.342,564.193L1513.496,564.077L1515.136,564.377L1516.839,565.088L1519.923,566.284L1521.21,565.54L1522.387,564.788L1523.504,563.473L1524.607,562.108L1525.097,560.416L1525.383,558.759L1526.837,557.805L1527.426,556.44L1528.937,556.681L1530.295,557.593L1531.926,558.402L1533.397,557.574L1534.871,558.208L1537.072,558.594L1539.057,558.346L1540.413,557.5L1541.001,555.816L1541.444,554.2L1542.676,553.472L1544.291,553.662L1546.052,553.664L1547.262,552.646L1548.681,552.33L1550.232,552.46L1551.851,552.602L1553.05,551.593L1554.594,550.638L1556.234,550.235L1558.146,550.005L1559.584,549.417L1561.046,548.94L1560.952,546.768L1560.55,544.99L1561.974,546.086L1562.789,548.022L1563.829,549.798L1564.915,551.229L1566.57,551.964L1568.497,551.654L1570.811,551.556L1572.377,551.312L1574.762,551.387L1576.485,551.387L1578.954,551.726L1581.105,552.26L1582.625,553.842L1582.478,555.526L1583.842,557.027L1585.963,558.391L1588.157,559.908L1590.648,561.156L1593.236,562.386L1595.2,563.547L1597.368,564.137L1598.598,562.835L1600.325,564.417L1601.783,565.562L1603.429,566.301L1605.67,566.265L1607.758,566.386L1608.517,568.121L1610.439,568.886L1611.606,570.376L1613.424,570.831L1615.373,570.437L1617.12,570.488L1619.094,570.16L1620.967,570.36L1622.628,570.889L1624.034,571.94L1625.439,572.827L1626.19,574.233L1625.591,576.191L1624.433,577.991L1623.302,580.309L1622.428,582.154L1621.338,584.332L1619.34,585.328L1618.194,587.271L1616.201,588.649L1615.26,590.838L1614.037,592.997L1612.833,594.874L1611.996,597.235L1611.414,599.362L1610.982,601.905L1610.756,604.002L1611.167,606.091L1611.144,608.18L1611.408,610.112L1613.371,610.506L1613.381,612.976L1611.304,614.29L1609.502,615.945L1607.44,616.705L1606.238,620.383L1605.818,623.307L1605.214,625.734L1604.541,628.214L1605.599,629.902L1605.804,632.392L1606.287,634.56L1607.017,636.452L1607.812,638.243L1608.604,640.064L1609.832,641.841L1609.514,645.15L1610.971,646.367L1610.96,646.888L1610.89,648.932L1612.946,646.967L1613.569,649.153L1613.929,650.878L1613.929,650.878L1613.929,650.878L1613.938,650.939L1615.792,646.806L1615.987,649.084L1616.138,648.837L1617.529,646.651L1617.572,646.743L1617.616,646.798L1617.234,649.834L1619.062,647.02L1619.346,646.644L1621.416,645.792L1621.176,647.531L1621.024,648.428L1620.644,650.957L1620.997,653.218L1620.739,655.818L1621.218,658.256L1623.374,657.114L1623.902,659.602L1623.141,662.343L1625.291,661.338L1627.401,660.692L1629.781,658.016L1628.749,656.206L1628.711,653.568L1630.109,650.856L1629.932,648.551L1631.859,645.85L1633.697,643.513L1635.372,641.46L1636.903,638.976L1637.082,636.672L1637.982,634.302L1638.211,631.847L1639.431,633.236L1641.344,633.441L1640.841,636.008L1642.95,635.329L1645.319,634.264L1647.092,633.005L1648.538,630.675L1648.862,628.47L1649.089,626.064L1648.002,624.55L1647.302,622.827L1646.309,621.28L1647.102,618.975L1647.172,616.667L1647.694,614.428L1650.955,608.423L1651.067,609.18L1650.837,611.253L1652.469,611.684L1654.168,611.953L1653.366,614.593L1654.884,615.114L1656.606,614.96L1658.479,614.531L1660.479,613.808L1661.922,614.519L1663.216,612.801L1664.261,610.849L1665.704,609.523L1667.304,609.845L1666.574,611.794L1668.39,612.301L1670.149,612.28L1671.241,613.555L1672.538,614.486L1674.345,614.92L1675.89,615.203L1677.518,615.694L1677.807,616.796L1677.945,617.862L1679.419,619.072L1679.528,621.294L1680.403,622.889L1681.703,624.038L1682.042,626.093L1682.405,628.367L1683.259,630.093L1683.857,632.142L1684.442,634.282L1685.195,636.13L1686.921,636.764L1688.099,638.157L1687.601,640.69L1688.823,642.088L1688.863,642.105L1600.001,693.41L1600,693.41ZM1097.496,247.24L1097.678,247.298L1098.358,246.703L1100.193,247.507L1102.922,247.523L1100.639,248.147L1100.601,248.812L1100.574,249.096L1097.399,249.263L1096.303,248.329L1096.231,246.843ZM601.833,290.715L603.305,289.188L604.03,288.906L605.649,291.443L603.309,293.411L602.543,293.455L602.808,291.98Z" style="fill: rgb(254, 254, 228); stroke: rgb(9, 120, 171); stroke-width: 0px;"/></svg>